<svg id="Layer_1" data-name="Layer 1" xmlns="http://www.w3.org/2000/svg" viewBox="0 0 609.51 239.3"><defs><style>.cls-1{fill:#243a49;}</style></defs><title>logo-1color-darkArtboard 5</title><path class="cls-1" d="M327.19,67.93l-4,38.64h-12l3-21.67L306,106.57H295.44L294.15,84.9l-3.87,21.67h-12l8.29-38.64h15.68l1.34,20.78,8-20.78Z"/><path class="cls-1" d="M360.51,67.93l-1.63,10H344.66L344,82h13.44l-1.57,10H342.42l-.67,4.37h14.78l-1.62,10.13h-27L334,67.93Z"/><path class="cls-1" d="M392.54,67.93,391,77.84h-8.74l-4.53,28.73H365.43L370,77.84h-8.74l1.57-9.91Z"/><path class="cls-1" d="M417,91.9l6.05,14.67H409l-3.87-12.82h-1.51l-2,12.82H389.29l6.1-38.64h16.19c6.83,0,13.61,2.19,13.61,10.25A15.58,15.58,0,0,1,417,91.9Zm-7.9-14.39h-3L405,84.12h3.19c2.41,0,4.42-1.4,4.42-4C412.64,78.18,410.8,77.51,409.11,77.51Z"/><path class="cls-1" d="M443.61,107.24c-10,0-17.36-5.6-17.36-16,0-14,9.8-23.91,23.69-23.91,10,0,17.36,5.6,17.36,16C467.3,97.28,457.55,107.24,443.61,107.24Zm4.65-29.17c-5.88,0-9.47,5.43-9.47,10.92,0,4.09,2.41,7,6.61,7,5.88,0,9.47-5.43,9.47-10.92C454.87,81,452.46,78.07,448.26,78.07Z"/><path class="cls-1" d="M511.2,67.93l-1.62,10H495.35L494.68,82h13.44l-1.57,10H493.11l-.67,4.37h14.79l-1.63,10.13h-27l6.1-38.64Z"/><path class="cls-1" d="M537.8,91.9l6.05,14.67H529.74l-3.87-12.82h-1.51l-2,12.82H510.08l6.11-38.64h16.18c6.83,0,13.61,2.19,13.61,10.25A15.58,15.58,0,0,1,537.8,91.9Zm-7.89-14.39h-3l-1.06,6.61H529c2.41,0,4.42-1.4,4.42-4C533.43,78.18,531.59,77.51,529.91,77.51Z"/><path class="cls-1" d="M564.29,67.93l-6.1,38.64H545.92L552,67.93Z"/><path class="cls-1" d="M596.21,67.93l-1.62,10H580.36L579.69,82h13.44l-1.57,10H578.12l-.67,4.37h14.78l-1.62,10.13h-27l6.1-38.64Z"/><path class="cls-1" d="M310.72,133.76a11.78,11.78,0,0,0-7.78-3.41c-6.05,0-10,4.7-10,10.53,0,4.36,3,6.83,7.23,6.83a14.18,14.18,0,0,0,9.4-3.53l2,10.19a20.82,20.82,0,0,1-14,4.87c-9.91,0-17.13-5.71-17.13-16,0-13.77,9.57-23.91,23.41-23.91,3.47,0,9.29.95,11.87,3.64Z"/><path class="cls-1" d="M354.46,119.93l-6.16,38.64H336l2.29-14.22h-10l-2.24,14.22H313.8l6.11-38.64h12.26L330,133.88h10l2.24-13.95Z"/><path class="cls-1" d="M390.19,158.57H376.86l-.56-5.43H365.83l-2.3,5.43H350.76l19-38.64h13.55Zm-14.9-15.17-1.12-10.08-4.26,10.08Z"/><path class="cls-1" d="M410.91,146.59h-4.2l-1.91,12H392.54l6.1-38.64h16.19c6.94,0,12.71,2.63,12.71,10.42C427.54,141,420.87,146.59,410.91,146.59Zm.39-17.08h-2L408.16,137h2.19c2.85,0,4.7-1.57,4.7-4.54C415.05,130,413.31,129.51,411.3,129.51Z"/><path class="cls-1" d="M459.63,119.93l-1.57,9.91h-8.74l-4.53,28.73H432.52l4.54-28.73h-8.74l1.57-9.91Z"/><path class="cls-1" d="M489,119.93l-1.63,10H473.12l-.67,4.08h13.44l-1.57,10H470.88l-.67,4.37H485l-1.62,10.13h-27l6.1-38.64Z"/><path class="cls-1" d="M515.57,143.9l6,14.67H507.5l-3.86-12.82h-1.51l-2,12.82H487.85l6.1-38.64h16.19c6.83,0,13.6,2.19,13.6,10.25A15.57,15.57,0,0,1,515.57,143.9Zm-7.9-14.39h-3l-1.06,6.61h3.19c2.4,0,4.42-1.4,4.42-4C511.2,130.18,509.35,129.51,507.67,129.51Z"/><path class="cls-1" d="M108.71,194.68a.82.82,0,0,1-.19.41.77.77,0,0,1-.49.22v.1h2.63v-.1a.66.66,0,0,1-.59-.4A2.94,2.94,0,0,1,110,194v-4.42a2.51,2.51,0,0,1,.12-.88.68.68,0,0,1,.59-.39v-.1H108v.1a.74.74,0,0,1,.49.24,1,1,0,0,1,.19.44,5.86,5.86,0,0,1,0,.66v4.43A5.29,5.29,0,0,1,108.71,194.68Z"/><path class="cls-1" d="M112.08,194.94a.66.66,0,0,1-.59.37v.1h2.14v-.1a.63.63,0,0,1-.59-.38,3,3,0,0,1-.12-1v-4.91l3.47,2.89.38.33a.67.67,0,0,1,.18.33,6.7,6.7,0,0,1,0,1v.45a5,5,0,0,1,0,.64.77.77,0,0,1-.21.41.7.7,0,0,1-.49.21v.1h2.16v-.1a.66.66,0,0,1-.59-.4,2.9,2.9,0,0,1-.12-.94v-4.43a2.55,2.55,0,0,1,.12-.88.66.66,0,0,1,.59-.38v-.1h-2.16v.1a.64.64,0,0,1,.61.38,2.91,2.91,0,0,1,.13,1v1.31l-2.51-2.09c-.23-.18-.34-.32-.34-.43s.07-.12.23-.13v-.1h-2.89v.1a.74.74,0,0,1,.49.24,1,1,0,0,1,.19.44,5.86,5.86,0,0,1,0,.66v4.43A2.53,2.53,0,0,1,112.08,194.94Z"/><path class="cls-1" d="M121.24,189.35a1.91,1.91,0,0,1,.79-.58,3.12,3.12,0,0,1,2.46.21,2.22,2.22,0,0,1,1,1.07l.08,0-.5-2.07a.43.43,0,0,1-.43.23l-.35,0L123,188a5.38,5.38,0,0,0-1.49.19,3.52,3.52,0,0,0-1.24.65,2.81,2.81,0,0,0-.61.72,3.23,3.23,0,0,0-.37.88,4.29,4.29,0,0,0,0,1.84,4.33,4.33,0,0,0,.26.84,4.08,4.08,0,0,0,.44.75,3.82,3.82,0,0,0,.62.65,4.89,4.89,0,0,0,3.21,1l1.33-.07a1.48,1.48,0,0,1,.36,0l.85-2.21-.11,0a3.56,3.56,0,0,1-.59.91,2.32,2.32,0,0,1-.81.59,2.46,2.46,0,0,1-1,.21,3.17,3.17,0,0,1-1.35-.29,3.26,3.26,0,0,1-1-.8,3.76,3.76,0,0,1-.67-1.17,3.9,3.9,0,0,1-.23-1.37,3.57,3.57,0,0,1,.17-1.07A2.85,2.85,0,0,1,121.24,189.35Z"/><path class="cls-1" d="M128.59,195.27a.83.83,0,0,0,0-1.08.61.61,0,0,0-.5-.23.68.68,0,0,0-.54.23.79.79,0,0,0-.21.56.76.76,0,0,0,.21.53.65.65,0,0,0,.5.24A.64.64,0,0,0,128.59,195.27Z"/><path class="cls-1" d="M43.93,117.3a.71.71,0,0,1-.19.41.73.73,0,0,1-.48.23v.1h5a1.26,1.26,0,0,1,.3,0,.25.25,0,0,1,.18.11l.94-2.73-.11,0a3.47,3.47,0,0,1-3.3,2.12,1.86,1.86,0,0,1-.78-.12.52.52,0,0,1-.29-.35,3.22,3.22,0,0,1-.06-.74v-2.94h.26a7.54,7.54,0,0,1,1.1.06,1.25,1.25,0,0,1,.67.33,2.06,2.06,0,0,1,.48.89l.08,0-.42-2.47-.1,0a.62.62,0,0,1-.14.43.66.66,0,0,1-.35.18,2.37,2.37,0,0,1-.49,0H45.18v-.62a1,1,0,0,1,.21-.75,1.33,1.33,0,0,1,.8-.17,3.67,3.67,0,0,1,1.14.18,2.83,2.83,0,0,1,1,.53,2.42,2.42,0,0,1,.65.89l.09,0-.5-2.2a1,1,0,0,1-.59.13h-4.7v.1a.67.67,0,0,1,.59.4,2.9,2.9,0,0,1,.12.94v4.43A3.42,3.42,0,0,1,43.93,117.3Z"/><path class="cls-1" d="M54,117.34a2.59,2.59,0,0,1-1,.21,2.65,2.65,0,0,1-1.25-.3,2.85,2.85,0,0,1-1-.82,4,4,0,0,1-.61-1.18l-.1,0,.64,2.75a.52.52,0,0,1,.38-.2,2.92,2.92,0,0,1,.7.13l.71.17a2.42,2.42,0,0,0,.57.05,3.77,3.77,0,0,0,1.14-.18,3.34,3.34,0,0,0,1-.52,2.55,2.55,0,0,0,.7-.83,2.2,2.2,0,0,0,.26-1.07,1.93,1.93,0,0,0-.59-1.46,2,2,0,0,0-.61-.4,5.77,5.77,0,0,0-.8-.29L52.58,113l-.34-.1a3.52,3.52,0,0,1-.39-.16.85.85,0,0,1-.29-.23.46.46,0,0,1-.11-.32.67.67,0,0,1,.22-.52,1.41,1.41,0,0,1,.54-.3,2.27,2.27,0,0,1,.62-.09,2.59,2.59,0,0,1,1,.21,2.73,2.73,0,0,1,.87.59,2.44,2.44,0,0,1,.54.88l.09,0-.44-2.19a.52.52,0,0,1-.4.2,3,3,0,0,1-.55-.08l-.55-.12a2.75,2.75,0,0,0-.55,0,4,4,0,0,0-1.18.18,2.38,2.38,0,0,0-1,.6,1.44,1.44,0,0,0-.37,1,1.34,1.34,0,0,0,.41,1.06,3.18,3.18,0,0,0,1.18.61l1.46.45a4.34,4.34,0,0,1,1.19.52A1,1,0,0,1,55,116a1.24,1.24,0,0,1-.27.76A1.89,1.89,0,0,1,54,117.34Z"/><path class="cls-1" d="M61.93,111.73a2.08,2.08,0,0,1,.94,1.14l.1,0-.54-2.17a.3.3,0,0,1-.2.11,2.49,2.49,0,0,1-.45,0H57.57a2.49,2.49,0,0,1-.45,0,.3.3,0,0,1-.2-.11l-.54,2.17.1,0a2.12,2.12,0,0,1,.94-1.14,3.3,3.3,0,0,1,1.64-.35v5.3a5.82,5.82,0,0,1,0,.67.78.78,0,0,1-.19.41.71.71,0,0,1-.49.18v.1H61v-.1a.64.64,0,0,1-.49-.19.8.8,0,0,1-.19-.44,4.31,4.31,0,0,1,0-.7v-5.23A3.31,3.31,0,0,1,61.93,111.73Z"/><path class="cls-1" d="M166.64,117.21a.83.83,0,0,1-.31.52,1.2,1.2,0,0,1-.79.21v.1h3.58v-.1a1.29,1.29,0,0,1-.8-.22.83.83,0,0,1-.31-.52,5.52,5.52,0,0,1-.06-.93v-5.75l-2.41.66v.1l.48,0a.53.53,0,0,1,.56.36,3.15,3.15,0,0,1,.12,1v3.7A5.57,5.57,0,0,1,166.64,117.21Z"/><path class="cls-1" d="M176.84,112.49a2.73,2.73,0,0,0-2.72-1.82,3.38,3.38,0,0,0-1.42.3,2.55,2.55,0,0,0-1,.88,2.34,2.34,0,0,0-.39,1.33,2.21,2.21,0,0,0,.35,1.23,2.33,2.33,0,0,0,.94.82,2.85,2.85,0,0,0,1.27.28,3.12,3.12,0,0,0,1.22-.23,2.49,2.49,0,0,0,1-.67,4.77,4.77,0,0,1-.15,1.14,2.7,2.7,0,0,1-1.32,1.63,2,2,0,0,1-1,.27,1.25,1.25,0,0,1-.9-.33,1.14,1.14,0,0,1-.36-.87l0-.3-.11,0-.66,1.71a5.23,5.23,0,0,0,1.83.34,4.35,4.35,0,0,0,1.57-.27,3.27,3.27,0,0,0,1.95-2,4.33,4.33,0,0,0,.26-1.56A4.89,4.89,0,0,0,176.84,112.49Zm-1.13,1.59a1.82,1.82,0,0,1-.69.66,1.85,1.85,0,0,1-1,.25,1.64,1.64,0,0,1-.9-.25,1.57,1.57,0,0,1-.58-.69,2.24,2.24,0,0,1-.2-1,2.18,2.18,0,0,1,.22-1,1.68,1.68,0,0,1,.6-.69,1.71,1.71,0,0,1,.93-.26,1.69,1.69,0,0,1,.94.27,1.85,1.85,0,0,1,.65.71,2.13,2.13,0,0,1,.23,1A1.86,1.86,0,0,1,175.71,114.08Z"/><path class="cls-1" d="M183.08,112.69l.6-1.73a5.41,5.41,0,0,0-1.76-.29,3.83,3.83,0,0,0-1.46.26,3.11,3.11,0,0,0-1.13.75,3.4,3.4,0,0,0-.73,1.24,5,5,0,0,0-.25,1.66,5.11,5.11,0,0,0,.18,1.38,3.32,3.32,0,0,0,.55,1.15,2.7,2.7,0,0,0,.95.79,3,3,0,0,0,1.35.28,3.29,3.29,0,0,0,1.4-.3,2.47,2.47,0,0,0,1.05-.89,2.34,2.34,0,0,0,.39-1.33,2.53,2.53,0,0,0-.2-1,2.26,2.26,0,0,0-.55-.78,2.44,2.44,0,0,0-.82-.5,2.89,2.89,0,0,0-1-.17,3.07,3.07,0,0,0-1.16.22,2.88,2.88,0,0,0-1,.66,3.45,3.45,0,0,1,.29-1.38,2.73,2.73,0,0,1,.82-1.06,1.9,1.9,0,0,1,1.19-.4,1.07,1.07,0,0,1,1.17,1.17v.24ZM180,114.34a2,2,0,0,1,1.42-.58,1.5,1.5,0,0,1,1.16.53,1.62,1.62,0,0,1,.37.65,2.58,2.58,0,0,1,.12.8,2.18,2.18,0,0,1-.21,1,1.85,1.85,0,0,1-.61.69,1.66,1.66,0,0,1-.93.26,1.58,1.58,0,0,1-.93-.29,1.77,1.77,0,0,1-.64-.74,2.17,2.17,0,0,1-.22-1A1.82,1.82,0,0,1,180,114.34Z"/><path class="cls-1" d="M189,114.21c-.16.24-.32.48-.5.7s-.38.47-.6.71a12.38,12.38,0,0,1-1,1c-.34.3-.83.72-1.49,1.26l-.16.13h4.92a1.33,1.33,0,0,1,.35,0,.18.18,0,0,1,.13.11l.71-2.18-.11,0a1.68,1.68,0,0,1-.35.56,1.26,1.26,0,0,1-.44.28,1.47,1.47,0,0,1-.44.1c-.15,0-.42,0-.81,0h-1.86l.81-.69,1.66-1.62c.21-.25.38-.47.52-.66a2.81,2.81,0,0,0,.32-.65,2,2,0,0,0,.13-.74,1.49,1.49,0,0,0-.42-1.08,2.37,2.37,0,0,0-1-.64,3.92,3.92,0,0,0-1.26-.21,4.93,4.93,0,0,0-.81.07,6.31,6.31,0,0,0-.86.2,4.82,4.82,0,0,0-.73.29l.41,1.92.12,0a2.87,2.87,0,0,1,.05-.63,1.1,1.1,0,0,1,.23-.49,2,2,0,0,1,.43-.39,1.7,1.7,0,0,1,.53-.24,1.79,1.79,0,0,1,.57-.08,1.61,1.61,0,0,1,1.11.35,1.3,1.3,0,0,1,.41,1,2.24,2.24,0,0,1-.15.78A4.4,4.4,0,0,1,189,114.21Z"/><path class="cls-1" d="M35.28,73.86l-.11.19a1.23,1.23,0,0,1-.71.63,1.56,1.56,0,0,1-.9-.06A10.24,10.24,0,0,1,32.2,74h0l-9.89-5.08a7,7,0,0,1,2.12-2.54,4.41,4.41,0,0,1,3-.65l.22,0,.09-.64-5.38-1.27.21.44a.49.49,0,0,1,0,.34,5.87,5.87,0,0,1-.37.84L18,73.61a5.21,5.21,0,0,1-.47.79.43.43,0,0,1-.28.2l-.47.08L21,78.33l.46-.47-.14-.16a4.4,4.4,0,0,1-1.22-2.8,7,7,0,0,1,.83-3.2l10,5.13a10.77,10.77,0,0,1,1.24.73,1.32,1.32,0,0,1,.52.66,1.26,1.26,0,0,1-.13,1l-.09.19.59.3,2.82-5.5Z"/><path class="cls-1" d="M46.43,57.55l-.14.14a1.33,1.33,0,0,1-.88.47,1.61,1.61,0,0,1-.85-.18c-.29-.16-.7-.43-1.22-.79L35.61,51.5a11,11,0,0,1-1.06-.89,1.4,1.4,0,0,1-.38-.72,1.34,1.34,0,0,1,.21-1l.1-.18L34,48.37l-3.67,5,.53.39.14-.16a1.1,1.1,0,0,1,1.14-.49,6.8,6.8,0,0,1,1.81,1l.81.6L30.79,60l-.95-.7a9.29,9.29,0,0,1-1-.86,1.54,1.54,0,0,1-.41-.75,1.36,1.36,0,0,1,.23-1l.11-.18-.53-.39-3.66,5,.53.38.13-.14a1.37,1.37,0,0,1,.89-.47,1.71,1.71,0,0,1,.9.21,9.67,9.67,0,0,1,1.17.76l7.73,5.69a5.18,5.18,0,0,1,1.34,1.29,1.24,1.24,0,0,1-.12,1.29l-.09.17.51.38,3.66-5-.52-.38-.14.15a1.13,1.13,0,0,1-1.21.47,6.3,6.3,0,0,1-1.74-1L32.1,61,36,55.65l5.61,4.13a12,12,0,0,1,1.1.92,1.21,1.21,0,0,1,.13,1.65l-.1.18.52.38,3.67-5Z"/><path class="cls-1" d="M53.63,43.13l-.6.32,0,.19a7.21,7.21,0,0,1-1.85,8,3.94,3.94,0,0,1-1.31.93.87.87,0,0,1-.79-.07,7,7,0,0,1-1.16-1L43.68,47.1l.25-.23a15.07,15.07,0,0,1,1.77-1.54,2.5,2.5,0,0,1,1.42-.45,4.25,4.25,0,0,1,2,.62l.22.12.27-.57L44.8,41.59l-.29.61.11.11A1.1,1.1,0,0,1,45,43a1.13,1.13,0,0,1-.22.68,4.89,4.89,0,0,1-.67.77L42.57,46l-.78-.8c-.66-.68-.77-1.07-.74-1.29s.2-.64.92-1.34a7.87,7.87,0,0,1,2-1.41,6,6,0,0,1,2.24-.63,4.78,4.78,0,0,1,2.26.38l.21.09.24-.58-4.56-3,0,.35a1.92,1.92,0,0,1-.66,1L36.16,46l.45.47.16-.12a1.23,1.23,0,0,1,1.29-.25,5.69,5.69,0,0,1,1.54,1.23l6.69,6.87a10.14,10.14,0,0,1,.87,1,1.36,1.36,0,0,1-.08,1.75L47,57.1l.44.45,8-7.78a2.77,2.77,0,0,1,.46-.38.41.41,0,0,1,.3-.06l.45.08Z"/><path class="cls-1" d="M68.35,39.52l-.18.09a1.15,1.15,0,0,1-1.3,0A6.32,6.32,0,0,1,65.62,38l-2.05-3.35A36,36,0,0,0,66,31.81a12.13,12.13,0,0,0,1.81-3.35,3.67,3.67,0,0,0-.2-3.21A2.67,2.67,0,0,0,66.11,24a2.8,2.8,0,0,0-1.67,0,8.44,8.44,0,0,0-1.8.85L55,29.54l.34.56.18-.08a1.21,1.21,0,0,1,1-.11,1.62,1.62,0,0,1,.76.53,10,10,0,0,1,.81,1.16l5,8.18a5.2,5.2,0,0,1,.76,1.7,1.27,1.27,0,0,1-.6,1.15l-.15.12.33.54,5.26-3.22Zm-5.66-5.84-2-3.34a4.78,4.78,0,0,1-.7-1.47,1.13,1.13,0,0,1,.43-.87,5.66,5.66,0,0,1,1-.78,6.11,6.11,0,0,1,2.4-1,1.55,1.55,0,0,1,1.55.84Q66.58,29.18,62.69,33.68Z"/><path class="cls-1" d="M85.24,25.42l-.68.08v.2a7.21,7.21,0,0,1-4.61,6.83,3.67,3.67,0,0,1-1.55.4.91.91,0,0,1-.72-.35A7,7,0,0,1,77,31.21l-2.42-5.64.31-.14a16.19,16.19,0,0,1,2.2-.8,2.54,2.54,0,0,1,1.49.09A4.05,4.05,0,0,1,80.14,26l.16.19.46-.44-3.2-4.93-.49.46.06.15a1,1,0,0,1,.08.79,1.14,1.14,0,0,1-.44.56,5.79,5.79,0,0,1-.91.48l-2,.84-.44-1c-.38-.87-.34-1.28-.24-1.47s.42-.53,1.34-.92a8,8,0,0,1,2.34-.61,6.06,6.06,0,0,1,2.33.22,4.9,4.9,0,0,1,2,1.16l.17.16.42-.45-3.19-4.42-.17.32a1.88,1.88,0,0,1-1,.66L67.9,21.83l.26.59.19-.05a1.24,1.24,0,0,1,1.3.24,5.94,5.94,0,0,1,1,1.69l3.78,8.82a8.15,8.15,0,0,1,.45,1.24,1.53,1.53,0,0,1,0,.85,1.46,1.46,0,0,1-.67.75l-.16.11.24.58,10.26-4.4a3.36,3.36,0,0,1,.56-.19.45.45,0,0,1,.31,0l.38.24Z"/><path class="cls-1" d="M102.08,26.72l-.2,0a1.21,1.21,0,0,1-1.24-.45,6.07,6.07,0,0,1-.72-1.83l-2.31-9.32a5.45,5.45,0,0,1-.2-1.83c0-.4.35-.7.91-.92l.19-.08-.16-.63-5,1.24.16.64.2,0c.62-.09,1,0,1.26.38a6,6,0,0,1,.73,1.88l.56,2.27-5.92-2.87c-.72-.33-.81-.53-.82-.55s0-.07.27-.14l.2-.07-.16-.64L83.33,15.4l.15.63.2,0a1.35,1.35,0,0,1,1,.21,1.69,1.69,0,0,1,.56.73,9.44,9.44,0,0,1,.42,1.34l2.3,9.31a5.22,5.22,0,0,1,.21,1.85c-.05.39-.35.69-.91.92l-.19.07.16.62,4.94-1.23L92,29.21l-.21,0a1.13,1.13,0,0,1-1.22-.41A5.87,5.87,0,0,1,89.85,27L87.4,17.1l8.37,4.06c.41.19.73.36,1,.49a1.15,1.15,0,0,1,.46.49,16.58,16.58,0,0,1,.59,2l.24,1a10.1,10.1,0,0,1,.24,1.33,1.32,1.32,0,0,1-1,1.45l-.19.07.16.62,5-1.23Z"/><path class="cls-1" d="M118.12,25.55l-.19,0a1.22,1.22,0,0,1-1.15-.65,5.9,5.9,0,0,1-.39-1.93l-.66-9.57a5.38,5.38,0,0,1,.11-1.85c.12-.38.46-.62,1.06-.75l.19,0,0-.64-5.13.35,0,.66h.21a1.2,1.2,0,0,1,1.18.6,6.22,6.22,0,0,1,.39,2L113.9,16l-5.34-3.85c-.64-.43-.7-.65-.71-.68s.05-.06.29-.09l.21,0,0-.66-6.69.46,0,.65h.2a1.36,1.36,0,0,1,.93.37,1.67,1.67,0,0,1,.43.82,11.43,11.43,0,0,1,.17,1.39l.67,9.57a5.06,5.06,0,0,1-.12,1.86c-.11.37-.46.61-1.05.74l-.2,0,0,.64,5.08-.35,0-.65h-.21a1.15,1.15,0,0,1-1.14-.62,6.44,6.44,0,0,1-.38-2l-.71-10.14L112.87,19c.39.28.67.49.86.66a1.1,1.1,0,0,1,.37.55,15.67,15.67,0,0,1,.24,2.09l.07,1a10.26,10.26,0,0,1,0,1.35,1.46,1.46,0,0,1-.33.8,1.43,1.43,0,0,1-.9.45l-.2,0,.05.64,5.13-.36Z"/><path class="cls-1" d="M131.64,18.54a4.69,4.69,0,0,0-1.3-1,14.59,14.59,0,0,0-1.68-.79l-3.22-1.31-.71-.29a5.58,5.58,0,0,1-.77-.4,1.6,1.6,0,0,1-.51-.49.82.82,0,0,1-.15-.57,1.28,1.28,0,0,1,.49-.91,2.8,2.8,0,0,1,1.14-.49,4.4,4.4,0,0,1,1.29-.08,5.39,5.39,0,0,1,2.08.63A5.56,5.56,0,0,1,130,14.2a4.75,4.75,0,0,1,.94,1.91l0,.2.63-.08L131,10.72l-.34.34a.87.87,0,0,1-.72.28,5.3,5.3,0,0,1-1.1-.28c-.51-.17-.91-.29-1.19-.37a6.87,6.87,0,0,0-1.21-.2,8.43,8.43,0,0,0-2.65.17,4.88,4.88,0,0,0-2.29,1.15,3.37,3.37,0,0,0-1.1,2.27,3.13,3.13,0,0,0,.75,2.55,6.92,6.92,0,0,0,2.5,1.6l3.06,1.27a9.37,9.37,0,0,1,2.41,1.32,2,2,0,0,1,.64,1.87,2.35,2.35,0,0,1-.69,1.45,3.81,3.81,0,0,1-1.65,1,5.61,5.61,0,0,1-2.22.22,5.5,5.5,0,0,1-2.53-.86,6.1,6.1,0,0,1-1.86-1.89,8,8,0,0,1-1-2.59l-.05-.22-.66.14.92,6.7.32-.3A.89.89,0,0,1,121,26a6.76,6.76,0,0,1,1.44.4c.68.25,1.18.42,1.51.53a6.05,6.05,0,0,0,1.27.23c.24,0,.48,0,.73,0a8.14,8.14,0,0,0,1.83-.2,7.45,7.45,0,0,0,2.34-1,5.66,5.66,0,0,0,1.76-1.72,5.09,5.09,0,0,0,.82-2.36A4.42,4.42,0,0,0,131.64,18.54Z"/><path class="cls-1" d="M145.43,14.14l-.15.64.2.07c.8.24.71.58.68.71a2,2,0,0,1-.45.78c-.26.31-.62.7-1.09,1.17l-2.72,2.7-1.2-3.62a4.65,4.65,0,0,1-.39-2.29c.07-.29.26-.61,1.09-.46l.21.05.16-.65-6.4-1.57-.15.64.2.07a1.47,1.47,0,0,1,.88.73,15.52,15.52,0,0,1,.71,1.82l2.24,6.67-1,4.1a8.61,8.61,0,0,1-.4,1.3,1.27,1.27,0,0,1-1.5.83l-.2,0-.16.62,6,1.48.16-.64-.21-.06c-.56-.17-.85-.46-.9-.88a6.54,6.54,0,0,1,.25-2l1-3.94,5.12-5c.25-.22.48-.43.7-.61a4.67,4.67,0,0,1,.6-.45,1.91,1.91,0,0,1,.6-.26,1.88,1.88,0,0,1,.72,0l.2,0,.16-.64Z"/><path class="cls-1" d="M160.31,30l-.17.15a9.06,9.06,0,0,1-2.39,1.61,6.79,6.79,0,0,1-5.38.11,1.74,1.74,0,0,1-1-.75,1.4,1.4,0,0,1,.07-1.14l3.73-9.26a5.29,5.29,0,0,1,.93-1.64,1.13,1.13,0,0,1,1.24-.18l.2.06.25-.61L152.1,16l-.24.6.17.1a1.36,1.36,0,0,1,.68.74,1.69,1.69,0,0,1,0,.92,8.67,8.67,0,0,1-.45,1.33L148.7,28.6a5.27,5.27,0,0,1-.92,1.63,1.24,1.24,0,0,1-1.28.2l-.19,0-.24.59,9,3.63c.8.32,1,.56,1,.68l.14.36,4.5-5.18Z"/><path class="cls-1" d="M175,27.07l-.33.57.16.12c.48.37.58.73.31,1.19a4,4,0,0,1-.28.37c-.14.15-.29.3-.46.45l-.47.4-7.78,6.45,2.17-9.74.13-.61a3.53,3.53,0,0,1,.16-.59,2.38,2.38,0,0,1,.19-.48c.15-.25.43-.56,1.15-.33l.17.06.33-.55-4.88-2.88-.33.56.15.12a1.16,1.16,0,0,1,.45,1,11.29,11.29,0,0,1-.28,1.92L163.37,36A4.7,4.7,0,0,1,163,37.3c-.11.19-.29.37-.74.19l-.18-.07-.32.54,4.33,2.56.32-.54-.15-.13c-.38-.31-.32-.53-.22-.7a3.91,3.91,0,0,1,.81-.78l9.71-7.82a6.43,6.43,0,0,1,.68-.47,1.71,1.71,0,0,1,.66-.24,1.12,1.12,0,0,1,.65.1l.19.08.33-.56Z"/><path class="cls-1" d="M184.8,34.05l-.42.49.13.15a.81.81,0,0,1,.2.42.39.39,0,0,1-.12.34,1.68,1.68,0,0,1-.27.26A2.71,2.71,0,0,1,184,36c-.13.08-.29.18-.48.28l-9.44,5.3a10.16,10.16,0,0,1-2.18,1,1.44,1.44,0,0,1-.6,0,2.06,2.06,0,0,1-.68-.24l-.16-.08-.39.48,4.07,3.4.41-.49-.14-.15a1.3,1.3,0,0,1-.39-.77.9.9,0,0,1,.23-.75,5,5,0,0,1,1.31-1L178.87,41a7.06,7.06,0,0,1,1.84,2.58,6.71,6.71,0,0,1,.53,2.94,3.79,3.79,0,0,1-.75,2.17,1.27,1.27,0,0,1-1.7.47l-.16-.08-.4.47L182.35,53l.18-.15.21-.18.09-.08.15.13.12.09-.08-.11a1.25,1.25,0,0,1-.3-.72,9.93,9.93,0,0,1,.33-1.34l4.4-11.6a2.79,2.79,0,0,1,.38-.78.6.6,0,0,1,.81-.15l.16.08.4-.48Zm-2.39,10.56a5.9,5.9,0,0,0-.75-2.47,7.43,7.43,0,0,0-1.72-2.07l5.32-3Z"/><path class="cls-1" d="M182.83,52.62l-.09.08s0,.1.09.16l-.13.16-.17-.14-.18.15.38.31.09-.11-.15-.17.16-.14A1,1,0,0,0,183,53l.13-.17,0,0-.12-.09Z"/><path class="cls-1" d="M182.83,52.86c0-.06-.05-.11-.09-.16l-.21.18.17.14Z"/><path class="cls-1" d="M201.32,50.4l-.5.43.12.17a1.19,1.19,0,0,1,.23,1.29,6.18,6.18,0,0,1-1.36,1.5h0L198,55.31l-.09-6.58c0-.77.1-.95.13-1s.07,0,.24.18l.15.15.51-.43-4.37-5.1-.49.42.11.17a1.35,1.35,0,0,1,.25,1,1.69,1.69,0,0,1-.4.83,11,11,0,0,1-1,1l-7.29,6.24a5.38,5.38,0,0,1-1.56,1,1.19,1.19,0,0,1-1.11-.32l0,0L183,53l-.17.19-.09.11-.38-.31h0l3.31,3.88.49-.43-.12-.16a1.16,1.16,0,0,1-.18-1.28,6.16,6.16,0,0,1,1.35-1.48L194.92,47l.12,9.3c0,.47,0,.83,0,1.08a1.16,1.16,0,0,1-.23.63,17.18,17.18,0,0,1-1.54,1.43l-.74.64a8.81,8.81,0,0,1-1.08.81,1.45,1.45,0,0,1-.84.22,1.43,1.43,0,0,1-.89-.45l-.15-.14-.49.41,3.34,3.91.49-.41-.11-.17a1.22,1.22,0,0,1-.16-1.31A6.08,6.08,0,0,1,194,61.44l7.29-6.24a5.33,5.33,0,0,1,1.55-1,1.2,1.2,0,0,1,1.23.39l.15.14.49-.42Z"/><path class="cls-1" d="M182.83,52.92l-.16.14.15.17L183,53A1,1,0,0,1,182.83,52.92Z"/><path class="cls-1" d="M206.12,56.71l-.55.36.09.18a1.38,1.38,0,0,1,.14,1,1.86,1.86,0,0,1-.51.77,9.87,9.87,0,0,1-1.12.83l-8,5.29a9.3,9.3,0,0,1-1.16.67,1.45,1.45,0,0,1-.84.13,1.47,1.47,0,0,1-.84-.54l-.13-.15-.53.35,3.39,5.14.25-.16-.06-.14.29-.15,0-.08a1.2,1.2,0,0,1,0-1.32A6,6,0,0,1,198,67.61l8-5.27a5.15,5.15,0,0,1,1.66-.81,1.25,1.25,0,0,1,1.19.54l.13.14.54-.35Z"/><polygon class="cls-1" points="196.3 70.58 196.58 70.39 196.53 70.29 196.24 70.44 196.3 70.58"/><path class="cls-1" d="M213.23,68.38l-.57.28.05.19a.73.73,0,0,1,0,.46.42.42,0,0,1-.24.27,1.4,1.4,0,0,1-.36.13l-.41.08-.55.06L200.4,71a10.83,10.83,0,0,1-2.4,0,1.65,1.65,0,0,1-.58-.19,2.78,2.78,0,0,1-.52-.49l-.11-.14-.26.13.05.1-.28.19,2.31,4.6.57-.28-.07-.2a1.35,1.35,0,0,1-.05-.86.91.91,0,0,1,.51-.59,4.88,4.88,0,0,1,1.6-.39l3.84-.45a7,7,0,0,1,.66,3.1,6.67,6.67,0,0,1-.69,2.9,3.74,3.74,0,0,1-1.55,1.69,1.28,1.28,0,0,1-1.75-.24l-.11-.14L201,80l2.62,5.25.55-.28,0-.17a1.14,1.14,0,0,1,0-.78,9.47,9.47,0,0,1,.84-1.09L213.66,74a2.57,2.57,0,0,1,.66-.56.6.6,0,0,1,.81.18l.11.13.56-.28Zm-6.4,8.73a5.83,5.83,0,0,0,.3-2.57,7.38,7.38,0,0,0-.76-2.58l6.09-.63Z"/><path class="cls-1" d="M28.24,148.71a.83.83,0,0,1-.52-.56,5.6,5.6,0,0,1-.15-1.13c0-.53-.05-1-.08-1.24a7,7,0,0,0-.26-1.2,8.27,8.27,0,0,0-1.12-2.41,5,5,0,0,0-1.9-1.72,3.45,3.45,0,0,0-2.52-.19,3.18,3.18,0,0,0-2.1,1.62A7.14,7.14,0,0,0,19,144.8l-.07,3.31a9.31,9.31,0,0,1-.35,2.72,2,2,0,0,1-1.51,1.28,2.32,2.32,0,0,1-1.59-.11A3.75,3.75,0,0,1,14,150.82a5.56,5.56,0,0,1-1-2,5.77,5.77,0,0,1-.12-2.67,6,6,0,0,1,1.09-2.42,7.89,7.89,0,0,1,2-1.91l.19-.13-.37-.56-5.91,3.3.4.19a.88.88,0,0,1,.52.52,6.94,6.94,0,0,1,.15,1.48c0,.72,0,1.26.05,1.6a6.48,6.48,0,0,0,.25,1.26,8.11,8.11,0,0,0,1.09,2.33,7.45,7.45,0,0,0,1.75,1.83,5.62,5.62,0,0,0,2.24,1,4.57,4.57,0,0,0,1.05.11,5.24,5.24,0,0,0,1.45-.21,4.38,4.38,0,0,0,2.82-2.22,4.86,4.86,0,0,0,.49-1.59,15.51,15.51,0,0,0,.13-1.86l0-3.47,0-.77a5.81,5.81,0,0,1,.09-.86,1.7,1.7,0,0,1,.27-.66.84.84,0,0,1,.48-.34,1.18,1.18,0,0,1,1,.13,2.58,2.58,0,0,1,.87.87,4.47,4.47,0,0,1,.55,1.18,5.41,5.41,0,0,1,.17,2.16,5.81,5.81,0,0,1-.69,2.08,4.81,4.81,0,0,1-1.44,1.57l-.17.11.31.56,4.91-2.55Z"/><path class="cls-1" d="M40.78,175a9.12,9.12,0,0,0-1.55-4.31,8.94,8.94,0,0,0-3.29-3,8.08,8.08,0,0,0-4.25-.94,8.33,8.33,0,0,0-4.23,1.43,8.51,8.51,0,0,0-3.6,5.54h0a8.45,8.45,0,0,0-.07,2.19,8.19,8.19,0,0,0,.52,2.13,9.75,9.75,0,0,0,1,1.93,9.13,9.13,0,0,0,3.25,3A8.31,8.31,0,0,0,32.63,184h.13a7.55,7.55,0,0,0,4.15-1.31A8.74,8.74,0,0,0,40,179.32,8,8,0,0,0,40.78,175Zm-2.8.87a8.45,8.45,0,0,1-1.31,2.45,9.21,9.21,0,0,1-2.19,2,7.3,7.3,0,0,1-2,.95,5.74,5.74,0,0,1-2,.24,4.43,4.43,0,0,1-1.9-.58A4.52,4.52,0,0,1,27,179.49a4.76,4.76,0,0,1-.82-2.39,5.74,5.74,0,0,1,.42-2.5A8.44,8.44,0,0,1,28,172.27a9.5,9.5,0,0,1,2-1.8,7.75,7.75,0,0,1,2.72-1.16,4.9,4.9,0,0,1,1.13-.13,4.82,4.82,0,0,1,1.56.26,4.22,4.22,0,0,1,2.11,1.73,4.65,4.65,0,0,1,.77,2.2A6.24,6.24,0,0,1,38,175.87Z"/><path class="cls-1" d="M50.74,185.29h0l-6.49-6.85-.47.45.12.16a1.39,1.39,0,0,1,.3,1,1.73,1.73,0,0,1-.36.85,11.51,11.51,0,0,1-1,1l-6.94,6.57a8.67,8.67,0,0,1-1,.87,1.51,1.51,0,0,1-.81.27,1.43,1.43,0,0,1-.94-.37L33,189.1l-.46.44L36.79,194l.46-.43-.12-.17a1.42,1.42,0,0,1-.32-.94,1.56,1.56,0,0,1,.33-.81,9.9,9.9,0,0,1,1-1.07l3-2.82,2.3,1.2-.92,4.41c-.13.44-.28.85-.42,1.23s-.31.75-.5,1.11a3,3,0,0,1-.55.79c-.19.18-.48.34-1,0l-.16-.11-.45.43,3.77,4,.45-.43-.1-.16a1.32,1.32,0,0,1-.21-.69,1.9,1.9,0,0,1,.11-.66c.08-.21.22-.55.42-1a24,24,0,0,0,2.28-7.71,10.94,10.94,0,0,0,2.75.53,3.21,3.21,0,0,0,2.42-.88,2.41,2.41,0,0,0,.88-2A4.74,4.74,0,0,0,50.74,185.29Zm-1.6,3a2.52,2.52,0,0,1-1.81.66,5.51,5.51,0,0,1-1.55-.26,18.56,18.56,0,0,1-4-1.76l-.26-.15,3.17-3c.62-.59,1.07-.86,1.42-.86h.06c.52,0,1.28.54,2.37,1.69a5.28,5.28,0,0,1,1.24,1.87A1.71,1.71,0,0,1,49.14,188.28Z"/><path class="cls-1" d="M63.86,196.17a.51.51,0,0,1-.34-.07,5.53,5.53,0,0,1-.75-.52l-7.18-5.65a5.47,5.47,0,0,1-.69-.61.43.43,0,0,1-.14-.31v-.48l-4.38,3.39.37.54.19-.1a4.36,4.36,0,0,1,3-.66,7,7,0,0,1,3,1.42L50,202A8.94,8.94,0,0,1,49,203a1.4,1.4,0,0,1-.75.39,1.29,1.29,0,0,1-.9-.31l-.18-.13-.4.52,4.86,3.83.41-.52-.17-.14a1.25,1.25,0,0,1-.49-.82,1.65,1.65,0,0,1,.23-.87,12.76,12.76,0,0,1,.86-1.22L59.34,195a6.89,6.89,0,0,1,2.1,2.57,4.41,4.41,0,0,1,.06,3l-.06.21.61.22L64.33,196Z"/><path class="cls-1" d="M73.66,202.07a.83.83,0,0,1-.77,0,4.88,4.88,0,0,1-.89-.71l-.92-.84a7.76,7.76,0,0,0-1-.68,8.69,8.69,0,0,0-2.48-1,5,5,0,0,0-2.56.09,3.41,3.41,0,0,0-1.95,1.61,3.2,3.2,0,0,0-.38,2.63,7.15,7.15,0,0,0,1.6,2.5l2.25,2.43a9.08,9.08,0,0,1,1.64,2.21,2,2,0,0,1-.19,2,2.34,2.34,0,0,1-1.23,1,4,4,0,0,1-1.91.21,5.66,5.66,0,0,1-2.11-.73,5.52,5.52,0,0,1-1.94-1.84,6,6,0,0,1-.9-2.49,8,8,0,0,1,.14-2.79l0-.22-.65-.14-2,6.47.41-.14a.89.89,0,0,1,.74,0,7,7,0,0,1,1.13,1l1.16,1.11a6.26,6.26,0,0,0,1.05.74,8.28,8.28,0,0,0,2.4.91,8,8,0,0,0,1.59.17,7.3,7.3,0,0,0,.94-.06,5.83,5.83,0,0,0,2.32-.83,5.1,5.1,0,0,0,1.73-1.81,4.43,4.43,0,0,0,.48-3.56,4.64,4.64,0,0,0-.75-1.49,16,16,0,0,0-1.19-1.42l-2.38-2.52-.53-.58a4.72,4.72,0,0,1-.53-.67,1.82,1.82,0,0,1-.27-.67.88.88,0,0,1,.11-.57,1.23,1.23,0,0,1,.83-.62,2.74,2.74,0,0,1,1.24,0,4.62,4.62,0,0,1,1.21.47,5.55,5.55,0,0,1,1.62,1.44,5.68,5.68,0,0,1,.94,2,4.79,4.79,0,0,1,.06,2.13l0,.2.61.19,1.77-5.25Z"/><path class="cls-1" d="M92.42,209.5l-.19.64.2.07c.55.21.83.51.85.91a6.54,6.54,0,0,1-.31,2l-.28,1-6.36-1.85.33-1.13a8.74,8.74,0,0,1,.45-1.27,1.48,1.48,0,0,1,.56-.65,1.43,1.43,0,0,1,1-.11l.2,0,.18-.62-5.92-1.73-.18.62.18.09a1.33,1.33,0,0,1,.75.67,1.66,1.66,0,0,1,.11.91,10,10,0,0,1-.31,1.37L81,219.65a5.34,5.34,0,0,1-.76,1.71,1.21,1.21,0,0,1-1.24.33l-.2,0-.18.6L84.52,224l.18-.62-.19-.08c-.55-.22-.83-.54-.86-1a6.43,6.43,0,0,1,.32-2l1.9-6.54,6.36,1.86-2,6.68a13.82,13.82,0,0,1-.48,1.35,1.41,1.41,0,0,1-.54.6,1.35,1.35,0,0,1-1,.1l-.2,0-.18.62,5.94,1.73.18-.61-.18-.08a1.37,1.37,0,0,1-.75-.68,1.6,1.6,0,0,1-.12-.86c0-.32.16-.8.32-1.41L96,213.86a11.8,11.8,0,0,1,.47-1.3A1.49,1.49,0,0,1,97,212a1.39,1.39,0,0,1,1-.12l.2,0,.18-.63Z"/><path class="cls-1" d="M112.13,228.4a1.2,1.2,0,0,1-.65-.44,8.27,8.27,0,0,1-.45-1.3l-2.67-12.12a2.66,2.66,0,0,1-.11-.85.61.61,0,0,1,.6-.58l.17,0,.08-.62-5.71-.68-.08.64.19.06a.73.73,0,0,1,.39.24.45.45,0,0,1,.1.35,2.83,2.83,0,0,1-.09.37,3.2,3.2,0,0,1-.16.39l-.25.49-5,9.61a10.47,10.47,0,0,1-1.29,2,1.89,1.89,0,0,1-.48.38,2.71,2.71,0,0,1-.69.16l-.18,0-.07.62,5.26.62.08-.64-.2-.05a1.35,1.35,0,0,1-.75-.43.94.94,0,0,1-.22-.75,5.27,5.27,0,0,1,.56-1.55l1.73-3.46a7.2,7.2,0,0,1,3,1.15,6.84,6.84,0,0,1,2,2.17,3.74,3.74,0,0,1,.56,2.23c-.1.83-.47,1.25-1.16,1.32l-.18,0-.07.62,5.82.68.07-.61Zm-6.83-8.32a7.61,7.61,0,0,0-2.33-.77l2.38-4.58,1.41,6.4A6.25,6.25,0,0,0,105.3,220.08Z"/><path class="cls-1" d="M126.61,222.39l-.09.21A9.45,9.45,0,0,1,125,225a6.83,6.83,0,0,1-4.9,2.24,1.77,1.77,0,0,1-1.18-.3,1.37,1.37,0,0,1-.39-1.08l-.27-10a5.38,5.38,0,0,1,.19-1.88c.13-.37.48-.59,1.08-.66l.2,0v-.66l-6.17.17,0,.64.2,0a1.34,1.34,0,0,1,.91.41,1.76,1.76,0,0,1,.39.84,10.9,10.9,0,0,1,.12,1.39l.26,9.59a5.39,5.39,0,0,1-.2,1.86c-.13.36-.49.58-1.08.69l-.2,0,0,.64,9.72-.26c.86,0,1.14.12,1.22.2l.27.28,2.06-6.54Z"/><path class="cls-1" d="M140.35,220.19l-.06.22a9.07,9.07,0,0,1-1.21,2.61,6.82,6.82,0,0,1-4.55,2.88,1.78,1.78,0,0,1-1.22-.14,1.39,1.39,0,0,1-.53-1l-1.6-9.84a5.64,5.64,0,0,1-.06-1.89c.08-.39.4-.65,1-.8l.2-.05-.1-.65-6.09,1,.1.64h.2a1.39,1.39,0,0,1,1,.29,1.71,1.71,0,0,1,.49.78,9.55,9.55,0,0,1,.3,1.36l1.54,9.47a5.53,5.53,0,0,1,.06,1.87c-.09.37-.41.65-1,.83l-.19.06.11.63,9.6-1.56c.85-.14,1.14,0,1.24,0l.3.23,1.16-6.75Z"/><path class="cls-1" d="M164.79,209.53a8.68,8.68,0,0,0-2.78-3.61,8,8,0,0,0-4.1-1.6,9.2,9.2,0,0,0-4.52.73,9,9,0,0,0-3.56,2.69,8.17,8.17,0,0,0-1.7,4,8.35,8.35,0,0,0,.64,4.43,8.26,8.26,0,0,0,1.16,1.92,8.09,8.09,0,0,0,1.64,1.56,8.34,8.34,0,0,0,2,1.08h0a8.25,8.25,0,0,0,2.15.46q.33,0,.66,0a8.8,8.8,0,0,0,1.53-.14,10.43,10.43,0,0,0,2.08-.63,9.06,9.06,0,0,0,3.53-2.65,8.42,8.42,0,0,0,1.81-3.94A7.62,7.62,0,0,0,164.79,209.53Zm-2.35,6.15a4.3,4.3,0,0,1-.92,1.77,4.47,4.47,0,0,1-1.7,1.23,4.76,4.76,0,0,1-2.5.37,5.66,5.66,0,0,1-2.38-.86,8.75,8.75,0,0,1-2-1.82,9.21,9.21,0,0,1-1.41-2.28,7.76,7.76,0,0,1-.64-2.88,4.94,4.94,0,0,1,.62-2.62,4.21,4.21,0,0,1,2.08-1.77,4.64,4.64,0,0,1,1.83-.37l.48,0a6.4,6.4,0,0,1,2.4.76,8.61,8.61,0,0,1,2.17,1.74,9.45,9.45,0,0,1,1.59,2.52,7.7,7.7,0,0,1,.57,2.15A5.78,5.78,0,0,1,162.44,215.68Z"/><path class="cls-1" d="M175.6,211.16l-.19.09a1.2,1.2,0,0,1-1.32,0,6.29,6.29,0,0,1-1.27-1.53L169.2,204l.43-.28a13.77,13.77,0,0,1,2-1.09,2.43,2.43,0,0,1,1.44-.11,4.89,4.89,0,0,1,1.79,1l.17.13.43-.45-4-4.36-.41.53.09.14c.26.42.32.74.19,1a3.14,3.14,0,0,1-1,.91l-1.95,1.25-.55-.87a4.59,4.59,0,0,1-.57-1.11.72.72,0,0,1,.16-.62,4.18,4.18,0,0,1,1.1-.9,7.18,7.18,0,0,1,2.58-1,5.9,5.9,0,0,1,2.37,0,4.14,4.14,0,0,1,1.76.79l.16.13.43-.45-4-4.08,0,.5a.5.5,0,0,1-.16.29,5.83,5.83,0,0,1-.63.46l-8.86,5.63.35.55.18-.08a1.24,1.24,0,0,1,1.32,0,5.91,5.91,0,0,1,1.26,1.51l5.14,8.1a5.28,5.28,0,0,1,.79,1.69,1.25,1.25,0,0,1-.58,1.15l-.15.13.35.54,5.22-3.32Z"/><path class="cls-1" d="M193.55,196.82l-.16.12a1.19,1.19,0,0,1-1.29.28,6,6,0,0,1-1.56-1.22l-4.74-4.83.37-.36a13.19,13.19,0,0,1,1.7-1.47,2.4,2.4,0,0,1,1.38-.41,5,5,0,0,1,2,.61l.19.1.33-.53-4.8-3.44-.28.6.11.12c.34.35.47.66.38.91a3.13,3.13,0,0,1-.81,1.11L184.68,190l-.71-.73a4.24,4.24,0,0,1-.79-1,.69.69,0,0,1,0-.64,4.3,4.3,0,0,1,.89-1.11A7.1,7.1,0,0,1,186.4,185a5.78,5.78,0,0,1,2.32-.5,4.1,4.1,0,0,1,1.88.41l.19.09.32-.53-4.8-3.15.06.5a.44.44,0,0,1-.1.31,3.8,3.8,0,0,1-.52.59l-7.48,7.35.45.47.16-.12a1.25,1.25,0,0,1,1.3-.25,5.72,5.72,0,0,1,1.54,1.22l6.72,6.84a5.13,5.13,0,0,1,1.13,1.49,1.25,1.25,0,0,1-.33,1.25l-.12.16.45.45,4.42-4.34Z"/><path class="cls-1" d="M218.09,161l-.11.16a1.29,1.29,0,0,1-1.18.64,5.86,5.86,0,0,1-1.83-.66l-8.54-4.38a5.47,5.47,0,0,1-1.51-1,1.28,1.28,0,0,1-.1-1.3l.06-.19-.58-.29-2.83,5.52.57.29.11-.14c.16-.2.27-.17.37-.12s.44.34.92,1.13l2.48,4.09-5.3.14a2,2,0,0,1-.84-.11c-.08-.05-.15-.1-.1-.31l0-.18-.57-.29-2.95,5.77.58.29.11-.16a1.43,1.43,0,0,1,.8-.61,1.8,1.8,0,0,1,.92.06,11,11,0,0,1,1.28.57l8.54,4.37a5.49,5.49,0,0,1,1.54,1.07,1.24,1.24,0,0,1,.08,1.28l-.06.19.56.29,2.33-4.54-.58-.29-.11.18a1.14,1.14,0,0,1-1.11.65,6,6,0,0,1-1.88-.68l-8.94-4.58,9.24-.4-4.93-8.13,9.13,4.68a9.3,9.3,0,0,1,1.17.69,1.43,1.43,0,0,1,.53.67,1.38,1.38,0,0,1-.08,1l-.07.19.57.3,2.83-5.51Z"/><path class="cls-1" d="M218.25,142.69l-.37.57.14.13a7.21,7.21,0,0,1,2.19,7.94,3.65,3.65,0,0,1-.7,1.45.9.9,0,0,1-.73.32,7.55,7.55,0,0,1-1.5-.35l-5.87-1.83.1-.32a15.64,15.64,0,0,1,.82-2.2,2.53,2.53,0,0,1,1-1.07,4.35,4.35,0,0,1,2-.39h.25l0-.63-5.83-.78,0,.67.15,0a1.08,1.08,0,0,1,.66.46,1.11,1.11,0,0,1,.13.7,5.83,5.83,0,0,1-.22,1l-.64,2-1.06-.33c-.9-.28-1.19-.58-1.27-.78a2.53,2.53,0,0,1,.17-1.61,8,8,0,0,1,1.06-2.18,6,6,0,0,1,1.67-1.63,4.65,4.65,0,0,1,2.17-.74l.23,0-.07-.62-5.43-.44.13.34a1.94,1.94,0,0,1-.13,1.16l-3.09,9.95.62.19.09-.18c.26-.54.59-.81,1-.83a5.84,5.84,0,0,1,2,.34l9.15,2.85a9.38,9.38,0,0,1,1.24.46,1.6,1.6,0,0,1,.63.58,1.48,1.48,0,0,1,.13,1l0,.19.61.19L223,147.68a3.54,3.54,0,0,1,.23-.56.42.42,0,0,1,.24-.2l.43-.14Z"/><path class="cls-1" d="M149.81,102.66h-2.52l1.62-10a5.48,5.48,0,0,0-5.42-6.37h-7.58a11.57,11.57,0,0,0,1.1-5.59c-.25-3.72-2.32-6.37-2.79-10.61-.76-6.83,3.94-10.57,2.51-12.85-.42-.67-1.34-1.18-3.27-1.18-2.42,0-6.43.81-13,3.12-7.11,2.49-8.77,3.34-11.3,4.78a24,24,0,0,0-4.35,2.81A17.73,17.73,0,0,0,99,80.67a17.17,17.17,0,0,0,1.25,5.59h-9.8A5.49,5.49,0,0,0,85,92.63l1.63,10H84.13a2.41,2.41,0,0,0-2.39,2.79L91,165.74a2.42,2.42,0,0,0,2.39,2H109l.06,1.51a7.94,7.94,0,0,0,15.87,0l.06-1.49h15.57a2.41,2.41,0,0,0,2.39-2l9.28-60.29A2.42,2.42,0,0,0,149.81,102.66ZM107.1,72.25c1-1.2,2-1.82,4.73-3.4a45.2,45.2,0,0,1,10.09-4.27c.1,0,.2-.06.3-.09a70.72,70.72,0,0,1,7.48-2.25,19.75,19.75,0,0,0-.94,8.46,31.8,31.8,0,0,0,2.07,8.4,4.38,4.38,0,0,1,.7,2c.12,2-1.08,3.16-2.5,4.94H106.8c-1.51-1.84-2.32-3.08-2.32-5.32S105.37,74.32,107.1,72.25ZM96,162.3l-8.33-54.15h18.87l2.17,54.15Zm26-59.64-.22,5.49-2.18,54.15-.22,5.49,0,1.29a2.45,2.45,0,0,1-4.89,0l0-1.29-.22-5.49-2.17-54.15-.23-5.49H92.21L90.44,91.75h53.05l-1.77,10.91Zm15.81,59.64H125.18l2.18-54.15h18.86Z"/><path class="cls-1" d="M208.91,178.44l-.14.1a1.18,1.18,0,0,1-.71.34,8.83,8.83,0,0,1-1.35-.27l-11.8-3.84a2.45,2.45,0,0,1-.79-.34.62.62,0,0,1-.19-.81l.07-.16-.5-.38L190,177.66l.52.39.14-.13a.73.73,0,0,1,.41-.22.4.4,0,0,1,.35.1,1.64,1.64,0,0,1,.27.26,3,3,0,0,1,.26.34l.29.46L198,188a10.26,10.26,0,0,1,1.09,2.14,1.78,1.78,0,0,1,.09.6,2.42,2.42,0,0,1-.21.68l-.07.17.49.37,3.2-4.22-.51-.39-.14.15a1.36,1.36,0,0,1-.75.42.93.93,0,0,1-.76-.19,5.11,5.11,0,0,1-1.06-1.27l-2.1-3.24a7,7,0,0,1,2.49-2,6.62,6.62,0,0,1,2.91-.67,3.71,3.71,0,0,1,2.2.65,1.25,1.25,0,0,1,.55,1.67l-.07.16.49.38,3.55-4.67Zm-8.85,1.21a6.32,6.32,0,0,0-.62.18,6.45,6.45,0,0,0-1.18.58,7.71,7.71,0,0,0-1.07.81,8.06,8.06,0,0,0-.92,1L193,177.05l7.67,2.49C200.48,179.57,200.27,179.6,200.06,179.65Z"/><path class="cls-1" d="M33.47,162.14a7.82,7.82,0,0,0-.62-1.89l-3.68-8.17-.59.27.06.2a1.31,1.31,0,0,1,0,1,1.74,1.74,0,0,1-.63.69,8.23,8.23,0,0,1-1.25.65L18,158.81a5.39,5.39,0,0,1-1.8.54c-.37,0-.73-.23-1.05-.74l-.11-.16-.58.26L17,164.33l.59-.27-.07-.19a1.15,1.15,0,0,1,.19-1.28,6.12,6.12,0,0,1,1.71-1.05L23,159.93c.8.95,1.65,1.87,2.54,2.74a12.35,12.35,0,0,0,3.09,2.21,4.26,4.26,0,0,0,1.9.49,3.16,3.16,0,0,0,1.32-.28,2.54,2.54,0,0,0,1.62-3Zm-3.33.3q-2.09.94-5.81-3.21l3.35-1.51a4.26,4.26,0,0,1,1.44-.47,1,1,0,0,1,.76.5,6.17,6.17,0,0,1,.61,1,5.69,5.69,0,0,1,.61,2.34A1.43,1.43,0,0,1,30.14,162.44Z"/></svg>