<svg id="Layer_1" data-name="Layer 1" xmlns="http://www.w3.org/2000/svg" viewBox="0 0 214.01 309.37"><defs><style>.cls-1{fill:#fff;}</style></defs><title>logo-stackwhite</title><path class="cls-1" d="M36.26,248.11,33.7,272.94H26L27.91,259l-5.26,13.93h-6.8L15,259l-2.48,13.93H4.8l5.33-24.83H20.21l.86,13.35,5.11-13.35Z"/><path class="cls-1" d="M57.68,248.11l-1,6.44H47.49l-.43,2.63H55.7l-1,6.44H46.06l-.44,2.81h9.51l-1.05,6.51H36.73l3.93-24.83Z"/><path class="cls-1" d="M78.27,248.11l-1,6.37H71.65l-2.92,18.46H60.85l2.92-18.46H58.15l1-6.37Z"/><path class="cls-1" d="M94,263.51l3.88,9.43H88.82l-2.48-8.24h-1l-1.3,8.24H76.19l3.92-24.83h10.4c4.4,0,8.75,1.4,8.75,6.58A10,10,0,0,1,94,263.51Zm-5.08-9.25H87l-.69,4.25h2A2.58,2.58,0,0,0,91.2,256C91.2,254.69,90,254.26,88.93,254.26Z"/><path class="cls-1" d="M111.11,273.37c-6.41,0-11.16-3.6-11.16-10.29,0-9,6.3-15.37,15.22-15.37,6.45,0,11.16,3.6,11.16,10.29C126.33,267,120.07,273.37,111.11,273.37Zm3-18.75c-3.77,0-6.08,3.49-6.08,7,0,2.63,1.55,4.5,4.25,4.5,3.78,0,6.08-3.49,6.08-7C118.34,256.49,116.79,254.62,114.09,254.62Z"/><path class="cls-1" d="M154.56,248.11l-1.05,6.44h-9.14l-.43,2.63h8.64l-1,6.44h-8.64l-.43,2.81H152l-1,6.51H133.61l3.92-24.83Z"/><path class="cls-1" d="M171.66,263.51l3.88,9.43h-9.07L164,264.7h-1l-1.3,8.24h-7.88l3.92-24.83h10.41c4.39,0,8.74,1.4,8.74,6.58A10,10,0,0,1,171.66,263.51Zm-5.08-9.25h-1.94l-.69,4.25H166a2.58,2.58,0,0,0,2.84-2.56C168.85,254.69,167.66,254.26,166.58,254.26Z"/><path class="cls-1" d="M188.69,248.11l-3.93,24.83h-7.88l3.92-24.83Z"/><path class="cls-1" d="M209.2,248.11l-1,6.44H199l-.43,2.63h8.64l-1,6.44h-8.64l-.43,2.81h9.5l-1,6.51H188.26l3.92-24.83Z"/><path class="cls-1" d="M48.63,293a7.62,7.62,0,0,0-5-2.2c-3.88,0-6.4,3-6.4,6.77,0,2.81,1.94,4.39,4.64,4.39a9.13,9.13,0,0,0,6-2.27l1.26,6.55a13.4,13.4,0,0,1-9,3.13c-6.37,0-11-3.67-11-10.25,0-8.86,6.16-15.37,15.05-15.37,2.23,0,6,.61,7.63,2.33Z"/><path class="cls-1" d="M76.74,284.11l-4,24.83H64.9l1.48-9.14H59.93l-1.44,9.14H50.61l3.92-24.83h7.89l-1.41,9h6.41l1.44-9Z"/><path class="cls-1" d="M99.71,308.94H91.14l-.36-3.49H84.05l-1.47,3.49H74.37l12.24-24.83h8.71Zm-9.57-9.75-.72-6.48-2.74,6.48Z"/><path class="cls-1" d="M113,301.24h-2.7l-1.22,7.7h-7.88l3.92-24.83h10.4c4.47,0,8.17,1.69,8.17,6.69C123.72,297.64,119.44,301.24,113,301.24Zm.25-11H112l-.75,4.79h1.4a2.72,2.72,0,0,0,3-2.92C115.69,290.58,114.58,290.26,113.28,290.26Z"/><path class="cls-1" d="M144.35,284.11l-1,6.37h-5.61l-2.92,18.46h-7.88l2.91-18.46h-5.61l1-6.37Z"/><path class="cls-1" d="M163.21,284.11l-1,6.44H153l-.43,2.63h8.63l-1,6.44h-8.64l-.44,2.81h9.51l-1,6.51H142.26l3.93-24.83Z"/><path class="cls-1" d="M180.31,299.51l3.89,9.43h-9.07l-2.48-8.24h-1l-1.3,8.24H162.5l3.92-24.83h10.4c4.39,0,8.75,1.4,8.75,6.58A10,10,0,0,1,180.31,299.51Zm-5.07-9.25h-2l-.68,4.25h2a2.58,2.58,0,0,0,2.85-2.56C177.51,290.69,176.32,290.26,175.24,290.26Z"/><path class="cls-1" d="M98.85,184.59a.86.86,0,0,1-.19.41.83.83,0,0,1-.49.22v.1h2.63v-.1a.66.66,0,0,1-.59-.41,2.87,2.87,0,0,1-.12-.93v-4.42a2.57,2.57,0,0,1,.12-.89.68.68,0,0,1,.59-.38v-.11H98.17v.11a.78.78,0,0,1,.49.23,1,1,0,0,1,.19.45,5.62,5.62,0,0,1,0,.66V184A5.36,5.36,0,0,1,98.85,184.59Z"/><path class="cls-1" d="M102.22,184.85a.67.67,0,0,1-.59.37v.1h2.14v-.1a.62.62,0,0,1-.59-.39,3,3,0,0,1-.12-1V179l3.47,2.89.38.34a.6.6,0,0,1,.18.32,6.7,6.7,0,0,1,0,1V184a5,5,0,0,1,0,.64.84.84,0,0,1-.21.42.8.8,0,0,1-.49.21v.1h2.16v-.1a.66.66,0,0,1-.59-.41,2.83,2.83,0,0,1-.12-.93v-4.43a2.61,2.61,0,0,1,.12-.89.65.65,0,0,1,.59-.37v-.11H106.4v.11c.33,0,.53.15.61.37a2.93,2.93,0,0,1,.13,1v1.3l-2.51-2.09c-.23-.18-.34-.32-.34-.43s.07-.11.23-.12v-.11h-2.89v.11a.78.78,0,0,1,.49.23,1,1,0,0,1,.19.45,5.62,5.62,0,0,1,0,.66V184A2.6,2.6,0,0,1,102.22,184.85Z"/><path class="cls-1" d="M111.38,179.25a1.88,1.88,0,0,1,.79-.57,2.85,2.85,0,0,1,1-.17,2.88,2.88,0,0,1,1.45.38,2.14,2.14,0,0,1,1,1.07l.08,0-.5-2.08a.41.41,0,0,1-.43.23l-.35,0-1.21-.1a5.37,5.37,0,0,0-1.49.2,3.36,3.36,0,0,0-1.24.65,2.65,2.65,0,0,0-.61.72,3,3,0,0,0-.37.88,4.33,4.33,0,0,0-.11,1,4.56,4.56,0,0,0,.09.89,4.46,4.46,0,0,0,.26.83,4.08,4.08,0,0,0,.44.75,4.29,4.29,0,0,0,.62.66,4.89,4.89,0,0,0,3.21,1l1.33-.07a1.48,1.48,0,0,1,.36,0l.85-2.2-.11-.05a3.4,3.4,0,0,1-.59.91,2.38,2.38,0,0,1-1.84.81,3.17,3.17,0,0,1-1.35-.29,3.29,3.29,0,0,1-1-.81,3.83,3.83,0,0,1-.67-1.16,3.94,3.94,0,0,1-.23-1.37,3.59,3.59,0,0,1,.17-1.08A2.85,2.85,0,0,1,111.38,179.25Z"/><path class="cls-1" d="M118.73,185.18a.85.85,0,0,0,.21-.56.84.84,0,0,0-.19-.53.64.64,0,0,0-.5-.23.71.71,0,0,0-.54.23.83.83,0,0,0,0,1.1.67.67,0,0,0,.5.23A.66.66,0,0,0,118.73,185.18Z"/><path class="cls-1" d="M34.07,107.21a.74.74,0,0,1-.19.41.78.78,0,0,1-.48.23v.09h5a1.26,1.26,0,0,1,.3,0,.29.29,0,0,1,.18.12l.94-2.73-.11,0a3.46,3.46,0,0,1-3.3,2.12,1.86,1.86,0,0,1-.78-.12.5.5,0,0,1-.29-.35,3.18,3.18,0,0,1-.06-.73v-2.95h.26a6.14,6.14,0,0,1,1.1.07,1.25,1.25,0,0,1,.67.33,2,2,0,0,1,.48.88l.08,0-.42-2.46-.1,0a.62.62,0,0,1-.14.43.67.67,0,0,1-.35.19,3.34,3.34,0,0,1-.49,0H35.32v-.62q0-.59.21-.75a1.33,1.33,0,0,1,.8-.17,4,4,0,0,1,1.14.17,3,3,0,0,1,1,.53,2.37,2.37,0,0,1,.65.9l.09,0-.5-2.21a1,1,0,0,1-.59.13H33.4v.11a.66.66,0,0,1,.59.4,2.86,2.86,0,0,1,.12.94v4.42A3.62,3.62,0,0,1,34.07,107.21Z"/><path class="cls-1" d="M44.12,107.25a2.77,2.77,0,0,1-1,.2,2.65,2.65,0,0,1-1.25-.3,2.75,2.75,0,0,1-1-.82,4,4,0,0,1-.61-1.17l-.1,0,.64,2.74a.5.5,0,0,1,.38-.19,3.34,3.34,0,0,1,.7.12l.71.18a3.1,3.1,0,0,0,.57,0,3.77,3.77,0,0,0,1.14-.18,3.36,3.36,0,0,0,1-.53,2.45,2.45,0,0,0,.7-.83,2.15,2.15,0,0,0,.26-1.07,1.94,1.94,0,0,0-.59-1.46,2.22,2.22,0,0,0-.61-.4,7.44,7.44,0,0,0-.8-.29l-1.53-.46-.34-.11a2.26,2.26,0,0,1-.39-.15.85.85,0,0,1-.29-.23.49.49,0,0,1-.11-.33.65.65,0,0,1,.22-.51,1.19,1.19,0,0,1,.54-.3,2,2,0,0,1,.62-.1,2.59,2.59,0,0,1,1,.21,2.76,2.76,0,0,1,.87.6,2.28,2.28,0,0,1,.54.88l.09,0-.44-2.19a.51.51,0,0,1-.4.19,2.31,2.31,0,0,1-.55-.08l-.55-.12a3.78,3.78,0,0,0-.55,0,3.69,3.69,0,0,0-1.18.19,2.26,2.26,0,0,0-1,.59,1.48,1.48,0,0,0-.37,1,1.35,1.35,0,0,0,.41,1.06,3.17,3.17,0,0,0,1.18.6l1.46.46a4.05,4.05,0,0,1,1.19.52,1,1,0,0,1,.42.91,1.22,1.22,0,0,1-.27.76A1.91,1.91,0,0,1,44.12,107.25Z"/><path class="cls-1" d="M52.07,101.63a2.08,2.08,0,0,1,.94,1.14l.1,0-.54-2.17a.31.31,0,0,1-.2.12l-.45,0H47.71l-.45,0a.31.31,0,0,1-.2-.12l-.54,2.17.1,0a2.12,2.12,0,0,1,.94-1.14,3.41,3.41,0,0,1,1.64-.35v5.3a6,6,0,0,1,0,.68.82.82,0,0,1-.19.41.71.71,0,0,1-.49.18v.09h2.65v-.09a.67.67,0,0,1-.49-.19.84.84,0,0,1-.19-.44,4.47,4.47,0,0,1,0-.7v-5.24A3.42,3.42,0,0,1,52.07,101.63Z"/><path class="cls-1" d="M156.78,107.11a.85.85,0,0,1-.31.53,1.33,1.33,0,0,1-.79.21v.09h3.58v-.09a1.36,1.36,0,0,1-.8-.22.85.85,0,0,1-.31-.53,5.36,5.36,0,0,1-.06-.93v-5.74l-2.41.66v.09l.48,0a.53.53,0,0,1,.56.36,3.24,3.24,0,0,1,.12,1v3.7A5.41,5.41,0,0,1,156.78,107.11Z"/><path class="cls-1" d="M167,102.39a2.9,2.9,0,0,0-1-1.32,2.86,2.86,0,0,0-1.71-.5,3.24,3.24,0,0,0-1.42.31,2.48,2.48,0,0,0-1,.88,2.31,2.31,0,0,0-.39,1.33,2.24,2.24,0,0,0,.35,1.23,2.38,2.38,0,0,0,.94.81,2.85,2.85,0,0,0,1.27.29,3.31,3.31,0,0,0,1.22-.23,2.72,2.72,0,0,0,1-.67,4.76,4.76,0,0,1-.15,1.13,2.62,2.62,0,0,1-.48.94,2.71,2.71,0,0,1-.84.7,2.14,2.14,0,0,1-1,.26,1.25,1.25,0,0,1-.9-.33,1.12,1.12,0,0,1-.36-.86l0-.31-.11,0-.66,1.71a5.25,5.25,0,0,0,1.83.35,4.35,4.35,0,0,0,1.57-.27,3.51,3.51,0,0,0,1.2-.8,3.42,3.42,0,0,0,.75-1.23,4.42,4.42,0,0,0,.26-1.57A5,5,0,0,0,167,102.39Zm-1.13,1.6a1.9,1.9,0,0,1-.69.66,1.94,1.94,0,0,1-.95.24,1.56,1.56,0,0,1-.9-.25,1.6,1.6,0,0,1-.58-.68,2.28,2.28,0,0,1-.2-.95,2.18,2.18,0,0,1,.22-1,1.68,1.68,0,0,1,.6-.69,1.63,1.63,0,0,1,.93-.26,1.77,1.77,0,0,1,.94.26,1.88,1.88,0,0,1,.65.72,2.1,2.1,0,0,1,.23,1A1.89,1.89,0,0,1,165.85,104Z"/><path class="cls-1" d="M173.22,102.6l.6-1.73a5.17,5.17,0,0,0-1.76-.3,4,4,0,0,0-1.46.26,3,3,0,0,0-1.13.76,3.27,3.27,0,0,0-.73,1.23,5.08,5.08,0,0,0-.25,1.66,5.24,5.24,0,0,0,.18,1.39,3.5,3.5,0,0,0,.55,1.15,2.68,2.68,0,0,0,.95.78,3,3,0,0,0,1.35.29,3.15,3.15,0,0,0,1.4-.31,2.51,2.51,0,0,0,1.05-.88,2.37,2.37,0,0,0,.39-1.34,2.53,2.53,0,0,0-.2-1,2.13,2.13,0,0,0-.55-.77,2.47,2.47,0,0,0-.82-.51,3.13,3.13,0,0,0-1-.17,3.07,3.07,0,0,0-1.16.22,2.88,2.88,0,0,0-1,.66,3.4,3.4,0,0,1,.29-1.37,2.76,2.76,0,0,1,.82-1.07,2,2,0,0,1,1.19-.4,1.09,1.09,0,0,1,1.17,1.18v.24Zm-3.05,1.64a2,2,0,0,1,1.42-.57,1.5,1.5,0,0,1,1.16.53,1.58,1.58,0,0,1,.37.64,2.64,2.64,0,0,1,.12.81,2.14,2.14,0,0,1-.21.95,1.78,1.78,0,0,1-.61.69,1.74,1.74,0,0,1-1.86,0,1.87,1.87,0,0,1-.64-.75,2.17,2.17,0,0,1-.22-1A1.82,1.82,0,0,1,170.17,104.24Z"/><path class="cls-1" d="M179.11,104.12c-.16.24-.32.47-.5.7s-.38.46-.6.71a12.2,12.2,0,0,1-1,1c-.34.3-.83.72-1.49,1.26l-.16.13h4.92a1.33,1.33,0,0,1,.35,0,.22.22,0,0,1,.13.12l.71-2.19-.11,0a1.63,1.63,0,0,1-.35.55,1.29,1.29,0,0,1-.44.29,2.51,2.51,0,0,1-.44.1l-.81.05h-1.86l.81-.69,1.66-1.63a7.76,7.76,0,0,0,.52-.66,2.74,2.74,0,0,0,.32-.64,2.06,2.06,0,0,0,.13-.74,1.53,1.53,0,0,0-.42-1.09,2.47,2.47,0,0,0-1-.64,3.92,3.92,0,0,0-1.26-.21,5.54,5.54,0,0,0-1.67.28,4,4,0,0,0-.73.29l.41,1.91.12,0a3,3,0,0,1,.05-.63,1.07,1.07,0,0,1,.23-.48,2,2,0,0,1,.43-.4,1.7,1.7,0,0,1,.53-.24,2.12,2.12,0,0,1,.57-.08,1.66,1.66,0,0,1,1.11.35,1.33,1.33,0,0,1,.41,1,2.15,2.15,0,0,1-.15.77A4.15,4.15,0,0,1,179.11,104.12Z"/><path class="cls-1" d="M25.42,63.76l-.11.19a1.25,1.25,0,0,1-.71.64,1.56,1.56,0,0,1-.9-.06,10.54,10.54,0,0,1-1.36-.61h0l-9.89-5.07a7,7,0,0,1,2.12-2.55,4.46,4.46,0,0,1,3-.64l.22,0,.09-.64-5.38-1.27.21.43a.49.49,0,0,1,0,.34,5.87,5.87,0,0,1-.37.84L8.16,63.51a5.44,5.44,0,0,1-.47.8.51.51,0,0,1-.28.2l-.47.08,4.17,3.65.46-.47-.14-.16a4.4,4.4,0,0,1-1.22-2.8,6.92,6.92,0,0,1,.83-3.2l10,5.13a11,11,0,0,1,1.24.72,1.38,1.38,0,0,1,.52.67,1.23,1.23,0,0,1-.13.94l-.09.2.59.3L26,64.06Z"/><path class="cls-1" d="M36.57,47.45l-.14.14a1.35,1.35,0,0,1-.88.48,1.53,1.53,0,0,1-.85-.19,11.51,11.51,0,0,1-1.22-.79l-7.73-5.68a12.35,12.35,0,0,1-1.06-.9,1.36,1.36,0,0,1-.38-.72,1.31,1.31,0,0,1,.21-.95l.1-.18-.52-.39-3.67,5,.53.39.14-.16c.38-.44.76-.61,1.14-.49a6.8,6.8,0,0,1,1.81,1l.81.59-3.93,5.34-.95-.7a9.29,9.29,0,0,1-1-.86,1.59,1.59,0,0,1-.41-.75,1.38,1.38,0,0,1,.23-1l.11-.17-.53-.39-3.66,5,.53.39.13-.14a1.44,1.44,0,0,1,.89-.48,1.81,1.81,0,0,1,.9.21,9.94,9.94,0,0,1,1.17.77L26,57.49a5.19,5.19,0,0,1,1.34,1.3,1.22,1.22,0,0,1-.12,1.28l-.09.18.51.37,3.66-5-.52-.38-.14.15a1.15,1.15,0,0,1-1.21.47,6.12,6.12,0,0,1-1.74-1l-5.48-4,3.92-5.34,5.61,4.13a13.85,13.85,0,0,1,1.1.92,1.41,1.41,0,0,1,.38.71,1.36,1.36,0,0,1-.25.94l-.1.18.52.38,3.67-5Z"/><path class="cls-1" d="M43.77,33l-.6.33,0,.18a7.2,7.2,0,0,1-1.85,8,4,4,0,0,1-1.31.94.93.93,0,0,1-.79-.07,7.17,7.17,0,0,1-1.16-1L33.82,37l.25-.24a16.1,16.1,0,0,1,1.77-1.54,2.5,2.5,0,0,1,1.42-.45,4.29,4.29,0,0,1,2,.63l.22.12L39.7,35,34.94,31.5l-.29.6.11.12a1.1,1.1,0,0,1,.37.71,1.15,1.15,0,0,1-.22.68,6,6,0,0,1-.67.77l-1.53,1.48-.78-.79c-.66-.68-.77-1.08-.74-1.29s.2-.65.92-1.34a7.63,7.63,0,0,1,2-1.41,5.84,5.84,0,0,1,2.24-.63,4.78,4.78,0,0,1,2.26.38l.21.09.24-.58-4.56-3,0,.36c0,.17-.16.47-.66,1L26.3,35.9l.45.46.16-.11A1.23,1.23,0,0,1,28.2,36a5.82,5.82,0,0,1,1.54,1.22l6.69,6.88a9.14,9.14,0,0,1,.87,1,1.58,1.58,0,0,1,.28.81,1.55,1.55,0,0,1-.36.94L37.1,47l.44.45,8-7.78A2.65,2.65,0,0,1,46,39.3a.38.38,0,0,1,.3-.07l.45.08Z"/><path class="cls-1" d="M58.49,29.43l-.18.09a1.15,1.15,0,0,1-1.3,0,6.41,6.41,0,0,1-1.25-1.57l-2-3.35a35.84,35.84,0,0,0,2.39-2.86,12.42,12.42,0,0,0,1.81-3.35,3.66,3.66,0,0,0-.2-3.21,2.63,2.63,0,0,0-1.46-1.26,2.72,2.72,0,0,0-1.67,0,7.57,7.57,0,0,0-1.8.85l-7.63,4.68.34.56.18-.09a1.3,1.3,0,0,1,1-.11,1.78,1.78,0,0,1,.76.53,12.06,12.06,0,0,1,.81,1.16l5,8.18A5.23,5.23,0,0,1,54,31.39a1.26,1.26,0,0,1-.6,1.14l-.15.13.33.54L58.83,30Zm-5.66-5.85-2-3.34a4.58,4.58,0,0,1-.7-1.47,1.13,1.13,0,0,1,.43-.87,7,7,0,0,1,3.39-1.74,1.55,1.55,0,0,1,1.55.84C56.3,18.39,55.43,20.59,52.83,23.58Z"/><path class="cls-1" d="M75.38,15.32l-.68.09v.19a7.2,7.2,0,0,1-4.61,6.83,3.72,3.72,0,0,1-1.55.41,1,1,0,0,1-.72-.35,7.71,7.71,0,0,1-.71-1.37l-2.42-5.65.31-.13a15.21,15.21,0,0,1,2.2-.81,2.54,2.54,0,0,1,1.49.09,4,4,0,0,1,1.6,1.29l.16.19.46-.44-3.2-4.94-.49.46.06.15a1.06,1.06,0,0,1,.08.8,1.08,1.08,0,0,1-.44.55,4.49,4.49,0,0,1-.91.48l-2,.84-.44-1c-.38-.87-.34-1.28-.24-1.47s.42-.53,1.34-.92A7.71,7.71,0,0,1,67.05,10a5.87,5.87,0,0,1,2.33.21,4.81,4.81,0,0,1,2,1.17l.17.16.42-.46L68.75,6.65,68.58,7a1.93,1.93,0,0,1-1,.67L58,11.73l.26.6.19-.05a1.24,1.24,0,0,1,1.3.23,5.87,5.87,0,0,1,1,1.7L64.57,23A8.15,8.15,0,0,1,65,24.26a1.57,1.57,0,0,1,0,.86,1.5,1.5,0,0,1-.67.75l-.16.1.24.58,10.26-4.4a3.2,3.2,0,0,1,.56-.18.4.4,0,0,1,.31.05l.38.23Z"/><path class="cls-1" d="M92.22,16.62l-.2,0a1.22,1.22,0,0,1-1.24-.44,6.18,6.18,0,0,1-.72-1.83L87.75,5.05a5.53,5.53,0,0,1-.2-1.84c0-.39.35-.7.91-.92l.19-.07-.16-.63-5,1.23.16.64.2,0c.62-.08,1,0,1.26.38a6.07,6.07,0,0,1,.73,1.89L86.41,8,80.49,5.09c-.72-.32-.81-.53-.82-.55s0-.06.27-.14l.2-.06L80,3.69,73.47,5.31l.15.63.2,0a1.35,1.35,0,0,1,1,.2,1.72,1.72,0,0,1,.56.74,9.44,9.44,0,0,1,.42,1.34l2.3,9.3a5.27,5.27,0,0,1,.21,1.86c-.05.38-.35.68-.91.91l-.19.08.16.61,4.94-1.22-.15-.63-.21,0a1.13,1.13,0,0,1-1.22-.41A5.87,5.87,0,0,1,80,16.86L77.54,7l8.37,4.06c.41.2.73.36,1,.5a1.12,1.12,0,0,1,.46.48,16.34,16.34,0,0,1,.59,2l.24.95a9.56,9.56,0,0,1,.24,1.33,1.44,1.44,0,0,1-.18.84,1.47,1.47,0,0,1-.81.6l-.19.07.16.63,5-1.24Z"/><path class="cls-1" d="M108.26,15.45h-.19a1.24,1.24,0,0,1-1.15-.65,6,6,0,0,1-.39-1.93l-.66-9.58A5.3,5.3,0,0,1,106,1.44c.12-.38.46-.63,1.06-.75l.19,0,0-.65-5.13.36,0,.65h.21c.62,0,1,.21,1.18.59a6.28,6.28,0,0,1,.39,2L104,5.92,98.7,2.07c-.64-.43-.7-.64-.71-.68s.05-.06.29-.09l.21,0,0-.66-6.69.47,0,.64.2,0a1.31,1.31,0,0,1,.93.37,1.67,1.67,0,0,1,.43.82,11.18,11.18,0,0,1,.17,1.39l.67,9.56a5.12,5.12,0,0,1-.12,1.87c-.11.36-.46.61-1,.74l-.2,0,.05.63L98,16.81l0-.64H97.7a1.16,1.16,0,0,1-1.14-.61,6.58,6.58,0,0,1-.38-2L95.47,3.45,103,8.89c.39.27.67.49.86.65a1.13,1.13,0,0,1,.37.56,15.44,15.44,0,0,1,.24,2.09l.07,1a10.26,10.26,0,0,1,0,1.35,1.33,1.33,0,0,1-1.23,1.26l-.2,0,.05.64,5.13-.36Z"/><path class="cls-1" d="M121.78,8.45a4.69,4.69,0,0,0-1.3-1,14.59,14.59,0,0,0-1.68-.8l-3.21-1.3-.72-.3a5.58,5.58,0,0,1-.77-.4,1.58,1.58,0,0,1-.51-.48.84.84,0,0,1-.15-.57,1.24,1.24,0,0,1,.49-.91,2.82,2.82,0,0,1,1.14-.5,4.4,4.4,0,0,1,1.29-.08,5.58,5.58,0,0,1,3.76,2A4.82,4.82,0,0,1,121.06,6l0,.21.63-.09-.58-5.5-.34.33a.88.88,0,0,1-.72.29A6,6,0,0,1,119,1L117.8.59A7,7,0,0,0,116.59.4a8.42,8.42,0,0,0-2.65.16,5,5,0,0,0-2.29,1.15A3.4,3.4,0,0,0,110.55,4a3.1,3.1,0,0,0,.75,2.54,6.8,6.8,0,0,0,2.5,1.61l3.06,1.26a9.36,9.36,0,0,1,2.41,1.33,2,2,0,0,1,.64,1.86,2.32,2.32,0,0,1-.69,1.45,3.82,3.82,0,0,1-1.65,1,5.61,5.61,0,0,1-2.22.22,5.74,5.74,0,0,1-2.53-.86A6.21,6.21,0,0,1,111,12.5a8,8,0,0,1-1-2.59l-.05-.23-.66.15.92,6.7.32-.3a.87.87,0,0,1,.67-.3,7.43,7.43,0,0,1,1.44.4c.68.25,1.18.43,1.51.53a6,6,0,0,0,1.27.24c.24,0,.48,0,.73,0a8.16,8.16,0,0,0,1.83-.21,7.43,7.43,0,0,0,2.34-1A5.89,5.89,0,0,0,122,14.25a5.13,5.13,0,0,0,.82-2.36A4.41,4.41,0,0,0,121.78,8.45Z"/><path class="cls-1" d="M135.57,4l-.15.65.2.06c.8.24.71.58.68.71a2,2,0,0,1-.45.78,14.46,14.46,0,0,1-1.09,1.17L132,10.12l-1.2-3.63a4.63,4.63,0,0,1-.39-2.28c.07-.3.26-.62,1.09-.46l.21,0,.16-.65-6.4-1.56-.15.64.2.06a1.45,1.45,0,0,1,.88.74,14.83,14.83,0,0,1,.71,1.82l2.24,6.67-1,4.1a9,9,0,0,1-.4,1.3,1.41,1.41,0,0,1-.53.67,1.37,1.37,0,0,1-1,.15l-.2,0-.16.62,6,1.47.16-.63-.21-.07c-.56-.17-.85-.46-.9-.87a6.51,6.51,0,0,1,.25-2l1-4,5.12-5,.7-.62q.33-.27.6-.45a2.18,2.18,0,0,1,.6-.26,1.71,1.71,0,0,1,.72,0l.2,0,.16-.63Z"/><path class="cls-1" d="M150.45,19.87l-.17.16a9.06,9.06,0,0,1-2.39,1.61,6.85,6.85,0,0,1-2.65.61,6.68,6.68,0,0,1-2.73-.51,1.69,1.69,0,0,1-1-.74,1.43,1.43,0,0,1,.07-1.15l3.73-9.25A5.37,5.37,0,0,1,146.27,9a1.13,1.13,0,0,1,1.24-.17l.2.06.25-.61-5.72-2.31-.24.6.17.1a1.43,1.43,0,0,1,.68.74,1.72,1.72,0,0,1,0,.93,8.61,8.61,0,0,1-.45,1.32l-3.58,8.9a5.53,5.53,0,0,1-.92,1.63,1.29,1.29,0,0,1-1.28.2l-.19-.05-.24.59,9,3.64c.8.32,1,.56,1,.67l.14.36,4.5-5.18Z"/><path class="cls-1" d="M165.15,17l-.33.56.16.12c.48.37.58.74.31,1.19a3,3,0,0,1-.28.37c-.14.15-.29.3-.46.45s-.33.29-.47.4l-7.78,6.45,2.17-9.73.13-.61a3.53,3.53,0,0,1,.16-.59,2,2,0,0,1,.19-.48c.15-.26.43-.57,1.15-.33l.17.05.33-.54-4.88-2.88-.33.55.15.13a1.13,1.13,0,0,1,.45,1,11.29,11.29,0,0,1-.28,1.92l-2.2,10.94a4.55,4.55,0,0,1-.39,1.27c-.11.2-.29.37-.74.2l-.18-.08-.32.55,4.33,2.56.32-.55-.15-.12c-.38-.32-.32-.54-.22-.71a3.91,3.91,0,0,1,.81-.78l9.71-7.81c.23-.18.46-.34.68-.48a1.68,1.68,0,0,1,.66-.23,1.12,1.12,0,0,1,.65.1l.19.08.33-.57Z"/><path class="cls-1" d="M174.94,24l-.42.5.13.14a.81.81,0,0,1,.2.42.41.41,0,0,1-.12.35,1.68,1.68,0,0,1-.27.26l-.35.24-.48.27-9.44,5.31a10.16,10.16,0,0,1-2.18,1,1.44,1.44,0,0,1-.6,0,2.67,2.67,0,0,1-.68-.24l-.16-.08-.39.47L164.25,36l.41-.5-.14-.14a1.32,1.32,0,0,1-.39-.78.87.87,0,0,1,.23-.74,5,5,0,0,1,1.31-1L169,30.94a7.06,7.06,0,0,1,1.84,2.58,6.67,6.67,0,0,1,.53,2.93,3.79,3.79,0,0,1-.75,2.17,1.27,1.27,0,0,1-1.7.47l-.16-.08-.4.48,4.12,3.45.18-.16.21-.18.09-.07.15.13.12.08-.08-.11a1.22,1.22,0,0,1-.3-.72,9.92,9.92,0,0,1,.33-1.33l4.4-11.6a2.64,2.64,0,0,1,.38-.78.59.59,0,0,1,.81-.15l.16.07.4-.48Zm-2.39,10.57a5.86,5.86,0,0,0-.75-2.47A7.43,7.43,0,0,0,170.08,30l5.32-3Z"/><path class="cls-1" d="M173,42.53l-.09.07c0,.06.05.11.09.17l-.13.16-.17-.15-.18.16.38.31.09-.11-.15-.18.16-.13.16.11.13-.16,0,0-.12-.08Z"/><path class="cls-1" d="M173,42.77c0-.06-.05-.11-.09-.17l-.21.18.17.15Z"/><path class="cls-1" d="M191.46,40.3l-.5.43.12.17a1.2,1.2,0,0,1,.23,1.3A6.37,6.37,0,0,1,190,43.7h0l-1.78,1.51-.09-6.58c0-.77.1-1,.13-1s.07,0,.24.18l.15.15.51-.43-4.37-5.1-.49.42.11.17a1.36,1.36,0,0,1,.25,1,1.69,1.69,0,0,1-.4.83,10.87,10.87,0,0,1-1,1L175.91,42a5.18,5.18,0,0,1-1.56,1,1.19,1.19,0,0,1-1.11-.32l0,0-.13.16-.17.2-.09.11-.38-.31h0l3.31,3.87.49-.42-.12-.17a1.16,1.16,0,0,1-.18-1.28,6.35,6.35,0,0,1,1.35-1.48l7.72-6.61.12,9.31c0,.47,0,.82,0,1.07a1.13,1.13,0,0,1-.23.63,15.46,15.46,0,0,1-1.54,1.44l-.74.63a9.06,9.06,0,0,1-1.08.82,1.44,1.44,0,0,1-.84.21,1.43,1.43,0,0,1-.89-.45l-.15-.14-.49.42,3.34,3.91.49-.42-.11-.16a1.22,1.22,0,0,1-.16-1.31,5.73,5.73,0,0,1,1.32-1.46l7.29-6.25a5.33,5.33,0,0,1,1.55-1,1.23,1.23,0,0,1,1.23.4l.15.13.49-.42Z"/><path class="cls-1" d="M173,42.83l-.16.13.15.18.17-.2Z"/><path class="cls-1" d="M196.26,46.62l-.55.36.09.17a1.38,1.38,0,0,1,.14,1,1.74,1.74,0,0,1-.51.77,9.75,9.75,0,0,1-1.12.84l-8,5.28a8.18,8.18,0,0,1-1.16.67,1.45,1.45,0,0,1-.84.13,1.47,1.47,0,0,1-.84-.54l-.13-.15-.53.35,3.39,5.15.25-.17-.06-.14.29-.15,0-.07a1.2,1.2,0,0,1,0-1.32,5.65,5.65,0,0,1,1.48-1.28l8-5.28a5.37,5.37,0,0,1,1.66-.81A1.28,1.28,0,0,1,199,52l.13.14.54-.36Z"/><polygon class="cls-1" points="186.44 60.48 186.72 60.3 186.68 60.19 186.38 60.34 186.44 60.48"/><path class="cls-1" d="M203.37,58.28l-.57.29,0,.18a.74.74,0,0,1,0,.46.4.4,0,0,1-.24.27,1.4,1.4,0,0,1-.36.13,2.71,2.71,0,0,1-.41.09l-.55.06-10.77,1.09a9.73,9.73,0,0,1-2.4,0,1.47,1.47,0,0,1-.58-.19,2.24,2.24,0,0,1-.52-.49l-.11-.13-.26.12.05.11-.28.18,2.31,4.61.57-.29-.07-.19a1.37,1.37,0,0,1-.05-.87.93.93,0,0,1,.51-.59,5.45,5.45,0,0,1,1.6-.39l3.84-.44a7,7,0,0,1,.66,3.1,6.7,6.7,0,0,1-.69,2.9A3.76,3.76,0,0,1,193.57,70a1.27,1.27,0,0,1-1.75-.24l-.11-.14-.56.28,2.62,5.24.55-.27,0-.17a1.13,1.13,0,0,1,0-.78,8.29,8.29,0,0,1,.84-1.1l8.66-8.88a2.82,2.82,0,0,1,.66-.56.6.6,0,0,1,.81.19l.11.13.56-.28ZM197,67a5.78,5.78,0,0,0,.3-2.56,7.49,7.49,0,0,0-.76-2.59l6.09-.62Z"/><path class="cls-1" d="M18.38,138.62a.87.87,0,0,1-.52-.56,5.84,5.84,0,0,1-.15-1.14c0-.53-.05-.94-.08-1.24a7.15,7.15,0,0,0-.26-1.2,8.52,8.52,0,0,0-1.12-2.41,5,5,0,0,0-1.9-1.71,3.36,3.36,0,0,0-2.52-.19,3.15,3.15,0,0,0-2.1,1.62,7.05,7.05,0,0,0-.58,2.91L9.08,138a9.34,9.34,0,0,1-.35,2.73A2,2,0,0,1,7.22,142a2.37,2.37,0,0,1-1.59-.11,3.84,3.84,0,0,1-1.52-1.18,5.52,5.52,0,0,1-1-2A5.76,5.76,0,0,1,3,136.07a6,6,0,0,1,1.09-2.42,8.07,8.07,0,0,1,2-1.91l.19-.12-.37-.56L0,134.35l.4.19a.94.94,0,0,1,.52.52,6.94,6.94,0,0,1,.15,1.48c0,.73,0,1.26.05,1.6a6.56,6.56,0,0,0,.25,1.27,8.06,8.06,0,0,0,1.09,2.32,7.49,7.49,0,0,0,1.75,1.84,5.91,5.91,0,0,0,2.24,1,5.09,5.09,0,0,0,2.5-.1,4.42,4.42,0,0,0,2.82-2.23,4.78,4.78,0,0,0,.49-1.59,15.37,15.37,0,0,0,.13-1.86l0-3.46,0-.78a5.81,5.81,0,0,1,.09-.86,1.77,1.77,0,0,1,.27-.66.78.78,0,0,1,.48-.33,1.21,1.21,0,0,1,1,.12,2.62,2.62,0,0,1,.87.88,4.28,4.28,0,0,1,.55,1.17,5.46,5.46,0,0,1,.17,2.17,5.69,5.69,0,0,1-.69,2.07,4.81,4.81,0,0,1-1.44,1.57l-.17.12.31.55,4.91-2.55Z"/><path class="cls-1" d="M30.92,164.9a9.12,9.12,0,0,0-1.55-4.31,8.94,8.94,0,0,0-3.29-3,8.18,8.18,0,0,0-4.25-.94,8.48,8.48,0,0,0-7.14,4.82,8.25,8.25,0,0,0-.69,2.16h0a8.45,8.45,0,0,0-.07,2.19,8.27,8.27,0,0,0,.52,2.14,10.33,10.33,0,0,0,1,1.93,9.23,9.23,0,0,0,3.25,3,8.42,8.42,0,0,0,4.08,1.06h.13a7.64,7.64,0,0,0,4.15-1.32,8.74,8.74,0,0,0,3.05-3.39A7.94,7.94,0,0,0,30.92,164.9Zm-2.8.87a8.33,8.33,0,0,1-1.31,2.45,9,9,0,0,1-2.19,2,7.94,7.94,0,0,1-2,.95,5.73,5.73,0,0,1-2,.23,4.3,4.3,0,0,1-1.9-.58,4.59,4.59,0,0,1-1.53-1.45,4.76,4.76,0,0,1-.82-2.39,5.69,5.69,0,0,1,.42-2.5,8.3,8.3,0,0,1,1.41-2.33,9.29,9.29,0,0,1,2-1.81,8.14,8.14,0,0,1,2.72-1.16,5.5,5.5,0,0,1,1.13-.12,4.56,4.56,0,0,1,1.56.26,4.15,4.15,0,0,1,2.11,1.72,4.69,4.69,0,0,1,.77,2.21A6.17,6.17,0,0,1,28.12,165.77Z"/><path class="cls-1" d="M40.88,175.2h0l-6.49-6.85-.47.45L34,169a1.39,1.39,0,0,1,.3,1,1.7,1.7,0,0,1-.36.84,9.27,9.27,0,0,1-1,1l-6.94,6.58a9.46,9.46,0,0,1-1,.86,1.61,1.61,0,0,1-.81.28,1.45,1.45,0,0,1-.94-.38l-.15-.11-.46.43,4.24,4.48.46-.44-.12-.16a1.42,1.42,0,0,1-.32-.94,1.59,1.59,0,0,1,.33-.82,10,10,0,0,1,1-1.06l3-2.83,2.3,1.2-.92,4.41c-.13.44-.28.86-.42,1.23s-.31.75-.5,1.12a3.16,3.16,0,0,1-.55.79c-.19.18-.48.34-1,0l-.16-.11-.45.44,3.77,4,.45-.43-.1-.16a1.29,1.29,0,0,1-.21-.69,1.9,1.9,0,0,1,.11-.66c.08-.2.22-.54.42-1A24.06,24.06,0,0,0,36.3,180a11.41,11.41,0,0,0,2.75.53,3.18,3.18,0,0,0,2.42-.89,2.4,2.4,0,0,0,.88-2A4.71,4.71,0,0,0,40.88,175.2Zm-1.6,3a2.52,2.52,0,0,1-1.81.66,5.18,5.18,0,0,1-1.55-.26,18.56,18.56,0,0,1-4-1.76l-.26-.15,3.17-3c.62-.59,1.07-.87,1.42-.87h.06c.52,0,1.28.54,2.37,1.7a5.17,5.17,0,0,1,1.24,1.86A1.7,1.7,0,0,1,39.28,178.18Z"/><path class="cls-1" d="M54,186.07a.45.45,0,0,1-.34-.06,5.84,5.84,0,0,1-.75-.53l-7.18-5.65a4.77,4.77,0,0,1-.69-.61.41.41,0,0,1-.14-.31v-.48l-4.38,3.39.37.55.19-.11a4.42,4.42,0,0,1,3-.66,6.92,6.92,0,0,1,3,1.43l-7,8.84a8.94,8.94,0,0,1-1,1.08,1.38,1.38,0,0,1-.75.38,1.27,1.27,0,0,1-.9-.3l-.18-.13-.4.51,4.86,3.83.41-.51-.17-.15a1.23,1.23,0,0,1-.49-.81,1.68,1.68,0,0,1,.23-.88,12.76,12.76,0,0,1,.86-1.22l6.87-8.73a7,7,0,0,1,2.1,2.57,4.44,4.44,0,0,1,.06,3.06l-.06.21.61.21,2.28-5Z"/><path class="cls-1" d="M63.8,192a.89.89,0,0,1-.77,0,5.55,5.55,0,0,1-.89-.72l-.92-.83a6.83,6.83,0,0,0-1-.69,8.67,8.67,0,0,0-2.48-.95,4.81,4.81,0,0,0-2.56.09,3.38,3.38,0,0,0-1.95,1.61,3.17,3.17,0,0,0-.38,2.62,7,7,0,0,0,1.6,2.5L56.68,198a9.47,9.47,0,0,1,1.64,2.21,2,2,0,0,1-.19,2,2.32,2.32,0,0,1-1.23,1,3.74,3.74,0,0,1-1.91.21,5.48,5.48,0,0,1-2.11-.73,5.59,5.59,0,0,1-1.94-1.83,6,6,0,0,1-.9-2.5,7.94,7.94,0,0,1,.14-2.78l0-.22-.65-.15-2,6.47.41-.14a.89.89,0,0,1,.74,0,6.79,6.79,0,0,1,1.13,1c.52.51.91.88,1.16,1.11a5.73,5.73,0,0,0,1.05.74,8.28,8.28,0,0,0,2.4.91,7.32,7.32,0,0,0,1.59.18,6.36,6.36,0,0,0,3.26-.9,5.15,5.15,0,0,0,1.73-1.8,4.48,4.48,0,0,0-.27-5.05,17.64,17.64,0,0,0-1.19-1.43l-2.38-2.52-.53-.57a5.44,5.44,0,0,1-.53-.68,1.78,1.78,0,0,1-.27-.66.92.92,0,0,1,.11-.58,1.3,1.3,0,0,1,.83-.62,2.62,2.62,0,0,1,1.24,0,4.6,4.6,0,0,1,1.21.46,5.45,5.45,0,0,1,1.62,1.45,5.55,5.55,0,0,1,.94,2,4.8,4.8,0,0,1,.06,2.13l-.05.21.61.18,1.77-5.24Z"/><path class="cls-1" d="M82.56,199.41l-.19.63.2.08c.55.21.83.5.85.9a6.46,6.46,0,0,1-.31,2l-.28,1-6.36-1.86L76.8,201a9.72,9.72,0,0,1,.45-1.27,1.51,1.51,0,0,1,.56-.64,1.37,1.37,0,0,1,1-.12l.2,0,.18-.63-5.92-1.72-.18.62.18.08a1.36,1.36,0,0,1,.75.67,1.68,1.68,0,0,1,.11.92,10.2,10.2,0,0,1-.31,1.36l-2.68,9.21a5.44,5.44,0,0,1-.76,1.71,1.25,1.25,0,0,1-1.24.33l-.2,0-.18.61,5.92,1.73.18-.63-.19-.07c-.55-.23-.83-.54-.86-1a6.39,6.39,0,0,1,.32-2l1.9-6.54,6.36,1.85-2,6.69a12.52,12.52,0,0,1-.48,1.34,1.36,1.36,0,0,1-.54.6,1.3,1.3,0,0,1-1,.1l-.2,0-.18.62L84,216.62l.18-.61-.18-.08a1.36,1.36,0,0,1-.75-.67,1.62,1.62,0,0,1-.12-.86c0-.32.16-.8.32-1.42l2.69-9.21a11.38,11.38,0,0,1,.47-1.31,1.41,1.41,0,0,1,.54-.6,1.33,1.33,0,0,1,1-.13l.2,0,.18-.63Z"/><path class="cls-1" d="M102.27,218.3a1.2,1.2,0,0,1-.65-.44,7.93,7.93,0,0,1-.45-1.29L98.5,204.45a2.74,2.74,0,0,1-.11-.86A.6.6,0,0,1,99,203l.17,0,.08-.62-5.71-.67-.08.64.19,0a.73.73,0,0,1,.39.24.46.46,0,0,1,.1.35,2.49,2.49,0,0,1-.09.37,4.16,4.16,0,0,1-.16.4l-.25.49-5,9.6a10.47,10.47,0,0,1-1.29,2,1.69,1.69,0,0,1-.48.38,2.65,2.65,0,0,1-.69.17l-.18,0-.07.61,5.26.62.08-.64-.2,0a1.31,1.31,0,0,1-.75-.44.93.93,0,0,1-.22-.75,5.37,5.37,0,0,1,.56-1.55l1.73-3.46a7.21,7.21,0,0,1,3,1.16,6.64,6.64,0,0,1,2,2.17,3.69,3.69,0,0,1,.56,2.22c-.1.83-.47,1.25-1.16,1.33l-.18,0-.07.61,5.82.69.07-.61ZM95.44,210a7.61,7.61,0,0,0-2.33-.77l2.38-4.58L96.9,211A5.94,5.94,0,0,0,95.44,210Z"/><path class="cls-1" d="M116.75,212.3l-.09.21a9.62,9.62,0,0,1-1.55,2.43,7,7,0,0,1-2.19,1.61,6.86,6.86,0,0,1-2.71.63,1.77,1.77,0,0,1-1.18-.3,1.38,1.38,0,0,1-.39-1.08l-.27-10a5.38,5.38,0,0,1,.19-1.88c.13-.38.48-.59,1.08-.66l.2,0v-.65l-6.17.16,0,.65.2,0a1.34,1.34,0,0,1,.91.41,1.81,1.81,0,0,1,.39.84,11.09,11.09,0,0,1,.12,1.4l.26,9.58a5.32,5.32,0,0,1-.2,1.86q-.19.54-1.08.69l-.2,0,0,.63,9.72-.26c.86,0,1.14.12,1.22.21l.27.27,2.06-6.54Z"/><path class="cls-1" d="M130.49,210.09l-.06.22a9,9,0,0,1-1.21,2.62,6.89,6.89,0,0,1-2,1.89,6.77,6.77,0,0,1-2.6,1,1.72,1.72,0,0,1-1.22-.14,1.39,1.39,0,0,1-.53-1l-1.6-9.85a5.64,5.64,0,0,1-.06-1.89c.08-.38.4-.64,1-.79l.2-.06-.1-.65-6.09,1,.1.64h.2a1.44,1.44,0,0,1,1,.28,1.76,1.76,0,0,1,.49.78,9.42,9.42,0,0,1,.3,1.37l1.54,9.46a5.53,5.53,0,0,1,.06,1.87c-.09.38-.41.65-1,.83l-.19.06.11.63,9.6-1.56c.85-.14,1.14,0,1.24,0l.3.24,1.16-6.76Z"/><path class="cls-1" d="M154.93,199.44a8.77,8.77,0,0,0-2.78-3.62,8,8,0,0,0-4.1-1.59,9.09,9.09,0,0,0-4.52.73,8.92,8.92,0,0,0-3.56,2.69,8.13,8.13,0,0,0-1.7,4,8.31,8.31,0,0,0,.64,4.42,8.06,8.06,0,0,0,1.16,1.92,8.14,8.14,0,0,0,1.64,1.57,8.3,8.3,0,0,0,2,1.07h0a8.26,8.26,0,0,0,2.15.47l.66,0A7.92,7.92,0,0,0,148,211a10.43,10.43,0,0,0,2.08-.63,9.13,9.13,0,0,0,3.53-2.64,8.45,8.45,0,0,0,1.81-4A7.59,7.59,0,0,0,154.93,199.44Zm-2.35,6.15a4.2,4.2,0,0,1-.92,1.76,4.37,4.37,0,0,1-1.7,1.23,4.77,4.77,0,0,1-2.5.38,5.82,5.82,0,0,1-2.38-.87,8.48,8.48,0,0,1-2-1.81,9.4,9.4,0,0,1-1.41-2.28,7.76,7.76,0,0,1-.64-2.89,4.94,4.94,0,0,1,.62-2.62,4.2,4.2,0,0,1,2.08-1.76,4.65,4.65,0,0,1,1.83-.38l.48,0a6.22,6.22,0,0,1,2.4.76,8.4,8.4,0,0,1,2.17,1.74,9.3,9.3,0,0,1,1.59,2.52,7.73,7.73,0,0,1,.57,2.14A5.82,5.82,0,0,1,152.58,205.59Z"/><path class="cls-1" d="M165.74,201.06l-.19.09a1.2,1.2,0,0,1-1.32,0,6,6,0,0,1-1.27-1.52l-3.62-5.71.43-.28a13.52,13.52,0,0,1,2-1.08,2.29,2.29,0,0,1,1.44-.11,4.61,4.61,0,0,1,1.79,1l.17.13.43-.45-4-4.36-.41.53.09.13c.26.42.32.75.19,1a3.26,3.26,0,0,1-1,.91l-2,1.24-.55-.86a4.59,4.59,0,0,1-.57-1.11.73.73,0,0,1,.16-.63,4.19,4.19,0,0,1,1.1-.89A7.21,7.21,0,0,1,161.2,188a6.08,6.08,0,0,1,2.37,0,4.26,4.26,0,0,1,1.76.79l.16.14.43-.46-4-4.08,0,.5a.47.47,0,0,1-.16.29,5.67,5.67,0,0,1-.63.47l-8.86,5.63.35.54.18-.08a1.23,1.23,0,0,1,1.32,0,5.91,5.91,0,0,1,1.26,1.51l5.14,8.09a5.28,5.28,0,0,1,.79,1.69,1.27,1.27,0,0,1-.58,1.16l-.15.13.35.53,5.22-3.32Z"/><path class="cls-1" d="M183.69,186.73l-.16.12a1.2,1.2,0,0,1-1.29.28,6,6,0,0,1-1.56-1.23l-4.74-4.82.37-.36a14.31,14.31,0,0,1,1.7-1.48,2.4,2.4,0,0,1,1.38-.4,4.66,4.66,0,0,1,2,.61l.19.09.33-.53-4.8-3.43-.28.6.11.11c.34.36.47.66.38.92a3.11,3.11,0,0,1-.81,1.1l-1.66,1.63-.71-.73a4.47,4.47,0,0,1-.79-1,.69.69,0,0,1,0-.64,4.3,4.3,0,0,1,.89-1.11,7.29,7.29,0,0,1,2.31-1.57,6.15,6.15,0,0,1,2.32-.5,4.38,4.38,0,0,1,1.88.41l.19.1.32-.54-4.8-3.14.06.49a.48.48,0,0,1-.1.32,3.8,3.8,0,0,1-.52.59L168.41,180l.45.46.16-.11a1.25,1.25,0,0,1,1.3-.26,6.15,6.15,0,0,1,1.54,1.22l6.72,6.84a5.26,5.26,0,0,1,1.13,1.49,1.25,1.25,0,0,1-.33,1.25l-.12.16.45.45,4.42-4.33Z"/><path class="cls-1" d="M208.23,150.88l-.11.15a1.27,1.27,0,0,1-1.18.64,6.06,6.06,0,0,1-1.83-.65l-8.54-4.38a5.46,5.46,0,0,1-1.51-1,1.27,1.27,0,0,1-.1-1.3l.06-.19-.58-.29-2.83,5.53.57.29.11-.15c.16-.2.27-.16.37-.11a3.08,3.08,0,0,1,.92,1.12l2.48,4.09-5.3.14a1.72,1.72,0,0,1-.84-.11c-.08,0-.15-.1-.1-.31l.05-.17-.57-.29-3,5.76.58.3.11-.17a1.41,1.41,0,0,1,.8-.6,1.65,1.65,0,0,1,.93.06,8.82,8.82,0,0,1,1.27.57l8.54,4.37a5.5,5.5,0,0,1,1.54,1.06,1.26,1.26,0,0,1,.08,1.29l-.06.19.56.28,2.33-4.53-.58-.29-.11.17a1.15,1.15,0,0,1-1.11.66,6.37,6.37,0,0,1-1.88-.69l-8.94-4.58,9.24-.4-4.93-8.12,9.13,4.68a9.3,9.3,0,0,1,1.17.69,1.43,1.43,0,0,1,.53.67,1.38,1.38,0,0,1-.08,1l-.07.19.57.29,2.83-5.5Z"/><path class="cls-1" d="M208.39,132.59l-.37.57.14.14a7.2,7.2,0,0,1,2.19,7.94,3.72,3.72,0,0,1-.7,1.45.92.92,0,0,1-.73.31,6.89,6.89,0,0,1-1.5-.35l-5.87-1.82.1-.33a15.41,15.41,0,0,1,.82-2.19,2.55,2.55,0,0,1,1-1.08,4.37,4.37,0,0,1,2-.38h.25l0-.63-5.83-.77,0,.67.15,0a1.12,1.12,0,0,1,.66.45,1.13,1.13,0,0,1,.13.7,5.92,5.92,0,0,1-.22,1l-.64,2L199,140c-.9-.28-1.19-.58-1.27-.77a2.56,2.56,0,0,1,.17-1.62,8,8,0,0,1,1.06-2.18,6,6,0,0,1,1.67-1.63,4.88,4.88,0,0,1,2.17-.74l.23,0-.07-.62-5.43-.44.13.33a2,2,0,0,1-.13,1.17l-3.09,9.94.62.19.09-.17a1.24,1.24,0,0,1,1-.84,5.84,5.84,0,0,1,1.95.34l9.15,2.85a9.2,9.2,0,0,1,1.24.47,1.51,1.51,0,0,1,.63.57,1.49,1.49,0,0,1,.13,1l0,.2.61.18,3.31-10.65a3.38,3.38,0,0,1,.23-.55.39.39,0,0,1,.24-.2l.43-.14Z"/><path class="cls-1" d="M140,92.56h-2.52l1.62-10a5.48,5.48,0,0,0-5.42-6.37h-7.58a11.59,11.59,0,0,0,1.1-5.59c-.25-3.73-2.32-6.38-2.79-10.62-.76-6.82,3.94-10.56,2.51-12.85-.42-.66-1.34-1.17-3.27-1.17-2.42,0-6.43.8-13,3.11-7.11,2.49-8.77,3.34-11.3,4.78a24.55,24.55,0,0,0-4.35,2.81,17.76,17.76,0,0,0-5.8,13.94,17.29,17.29,0,0,0,1.25,5.59h-9.8a5.49,5.49,0,0,0-5.42,6.37l1.63,10H74.27a2.41,2.41,0,0,0-2.39,2.79l9.27,60.29a2.42,2.42,0,0,0,2.39,2.05H99.11l.06,1.51a7.94,7.94,0,0,0,15.87,0l.06-1.49h15.57a2.41,2.41,0,0,0,2.39-2.05l9.28-60.29A2.42,2.42,0,0,0,140,92.56ZM97.24,62.15c1-1.2,2-1.81,4.73-3.4a45.18,45.18,0,0,1,10.09-4.26l.3-.1a73.23,73.23,0,0,1,7.48-2.25,19.77,19.77,0,0,0-.94,8.46A31.7,31.7,0,0,0,121,69a4.45,4.45,0,0,1,.7,2c.12,2-1.08,3.16-2.5,4.94H96.94c-1.51-1.84-2.32-3.09-2.32-5.32S95.51,64.22,97.24,62.15Zm-11.06,90L77.85,98.06H96.72l2.17,54.14Zm26-59.64-.22,5.5-2.18,54.14-.22,5.49,0,1.29a2.45,2.45,0,0,1-4.89,0l0-1.29-.22-5.49-2.17-54.14-.23-5.5H82.35l-1.77-10.9h53.05l-1.77,10.9ZM128,152.2H115.32l2.18-54.14h18.86Z"/><path class="cls-1" d="M199.05,168.34l-.14.11a1.21,1.21,0,0,1-.71.33,8.12,8.12,0,0,1-1.35-.26l-11.8-3.84a3,3,0,0,1-.79-.34.62.62,0,0,1-.19-.81l.07-.16-.5-.38-3.48,4.58.52.39.14-.14a.87.87,0,0,1,.41-.22.48.48,0,0,1,.35.1,3.31,3.31,0,0,1,.27.26c.09.11.18.22.26.34s.18.28.29.47l5.75,9.17a10.23,10.23,0,0,1,1.09,2.13,1.83,1.83,0,0,1,.09.61,2.63,2.63,0,0,1-.21.68l-.07.16.49.38,3.2-4.23-.51-.39-.14.15a1.44,1.44,0,0,1-.75.43.94.94,0,0,1-.76-.2,5,5,0,0,1-1.06-1.26l-2.1-3.25a7.17,7.17,0,0,1,2.49-2,6.6,6.6,0,0,1,2.91-.66,3.71,3.71,0,0,1,2.2.64,1.26,1.26,0,0,1,.55,1.67l-.07.17.49.37,3.55-4.67Zm-8.85,1.22a4.4,4.4,0,0,0-.62.18,6.39,6.39,0,0,0-1.18.57,7.78,7.78,0,0,0-1.07.82,7.41,7.41,0,0,0-.92,1L183.16,167l7.67,2.48Q190.52,169.49,190.2,169.56Z"/><path class="cls-1" d="M23.61,152a7.76,7.76,0,0,0-.62-1.88L19.31,142l-.59.27.06.19a1.34,1.34,0,0,1,0,1,1.81,1.81,0,0,1-.63.69,10.57,10.57,0,0,1-1.25.65l-8.74,3.93a5.16,5.16,0,0,1-1.8.54c-.37,0-.73-.22-1-.73l-.11-.17-.58.26,2.53,5.62.59-.26-.07-.2a1.16,1.16,0,0,1,.19-1.28,6.13,6.13,0,0,1,1.71-1l3.58-1.61a36.46,36.46,0,0,0,2.54,2.73,12.1,12.1,0,0,0,3.09,2.21,4.28,4.28,0,0,0,1.9.5A3.17,3.17,0,0,0,22,155a2.68,2.68,0,0,0,1.43-1.28A2.79,2.79,0,0,0,23.61,152Zm-3.33.31q-2.09.93-5.81-3.21l3.35-1.51a4.26,4.26,0,0,1,1.44-.47,1,1,0,0,1,.76.49,5.86,5.86,0,0,1,.61,1,5.66,5.66,0,0,1,.61,2.34A1.44,1.44,0,0,1,20.28,152.35Z"/></svg>