<svg id="Layer_1" data-name="Layer 1" xmlns="http://www.w3.org/2000/svg" viewBox="0 0 180.49 176.56"><defs><style>.cls-1{fill:#fff;}</style></defs><title>menu2Baseball copy 3</title><rect class="cls-1" x="0.13" y="46.17" width="179.54" height="25.44" rx="2.78" ry="2.78"/><rect class="cls-1" x="0.13" y="1.53" width="179.54" height="25.44" rx="2.78" ry="2.78"/><rect class="cls-1" x="0.13" y="90.81" width="179.54" height="25.44" rx="2.78" ry="2.78"/><path class="cls-1" d="M51,173.41H38.24l-.46-22.62-5.15,22.62H21.46L16.3,150.79l-.46,22.62H3.13l2.29-39.52H22l5,21.48,5-21.48H48.66Z"/><path class="cls-1" d="M87,173.41H58.4V133.89H86.46v10.2H71.29v4.3H85.61v10.13H71.29v4.59H87Z"/><path class="cls-1" d="M132.28,173.41H118.82l-12-22s.28,4.3.28,7.16v14.89H94.48V133.89h14L120,156s-.29-4.3-.29-7.16v-14.9h12.6Z"/><path class="cls-1" d="M176.67,156.52c0,6.3-1.43,10-4.29,12.89S164.93,174,158.63,174s-10.88-1.77-13.74-4.63-4.3-6.59-4.3-12.89V133.89h13v23.2c0,2.35.46,3.44,1.32,4.3a5.55,5.55,0,0,0,7.44,0c.86-.86,1.26-2,1.26-4.3v-23.2h13.06Z"/></svg>